<?xml version="1.0" encoding="UTF-8"?>
<svg version="1.1" viewBox="0 0 254.1 332.7" xmlns="http://www.w3.org/2000/svg">
 <g transform="translate(-175.4,-409)">
  <path d="m206 415.2c-20.2 12.1-27 37.5-15.3 57.1l30.8 57.4c19.7-18.2 53-37.6 78.8-45.8l-36.5-55.4c-12.7-21.1-38.8-24.3-57.8-13.3z" fill="#beb393" fill-rule="evenodd"/>
  <path d="m209.9 423.4c-14.9 8.9-19.9 27.7-11.2 42.1l19.3 31.9c15.7-12.1 35.9-23.8 54.2-31.5l-19.8-32.7c-5.1-8.6-13.9-13.6-23.3-14.4-6.4-0.5-13.1 1-19.2 4.6z" fill="#a39b82" fill-rule="evenodd"/>
  <path d="m396 415.5c-20.5-11.5-46-4.8-57.1 15.2l-34.4 55.2c25.5 8 59 27.2 78.9 45.6l29.8-59.3c12-21.4 1.8-45.7-17.2-56.7z" fill="#beb393" fill-rule="evenodd"/>
  <path d="m390.7 423.9c-15.2-8.5-33.9-3.5-42.1 11.2l-18.1 32.6c18.4 7.6 38.6 19.3 54.4 31.4l18.5-33.5c4.9-8.7 4.9-18.9 0.8-27.4-2.7-5.8-7.3-10.8-13.5-14.3z" fill="#a39b82" fill-rule="evenodd"/>
  <path d="m396.5 611.9c-35.7 33.4-150.9 33.2-186.5-0.5-35.3-33.7-23.1-119.8 12.6-153.3s126.9-33.2 162.4 0.5 47.3 119.7 11.5 153.3z" fill="#beb393" fill-rule="evenodd"/>
  <path d="m365.1 726.4c-16.2 13.2-104.1 13.2-120.3 0-16.1-13.2-31.1-68.9 0-98.2 39.7-38 86.1-40.8 120.3 0 25.2 32.2 16.2 85 0 98.2z" fill="#beb393"/>
  <path d="m369.1 681v8.3c0 18.2-28.9 33-64.6 33-35.8 0-64.1-14.8-64.1-33v-8.3c0-18.3 28.3-33 64.1-33 35.7 0 64.6 14.7 64.6 33z" fill="#e3d69e"/>
  <g transform="matrix(.9919 -.1271 .1271 .9919 -59.14 64.68)">
   <g transform="matrix(-1.399 .0041 -.1296 1.283 349 -200.7)">
    <path d="m-95.1 693.9c-9-4-11.9-17.7-6.3-30.8l27.6-59.6c8.9 7.7 22.1 21.9 22.2 37.3l-17.1 37.3c-6 13.9-17.9 19.4-26.4 15.8z" fill="#beb393" fill-rule="evenodd"/>
    <g transform="matrix(.399 .0804 .0804 -.399 -246.4 948)" fill="#4d4d4d">
     <path transform="matrix(.091 0 0 -.1145 285.4 707.6)" d="m-263.4 21.52c0 41.19-42.9 74.58-95.8 74.58s-95.8-33.39-95.8-74.58v-0.7l95.8 0.7z"/>
     <path transform="matrix(.0863 .0289 .0363 -.1086 301.9 721.8)" d="m-263.4 21.52c0 41.19-42.9 74.58-95.8 74.58s-95.8-33.39-95.8-74.58v-0.7l95.8 0.7z"/>
     <path transform="matrix(.0545 -.0373 -.0469 -.0686 239.8 704)" d="m-263.4 21.52c0 41.19-42.9 74.58-95.8 74.58s-95.8-33.39-95.8-74.58v-0.7l95.8 0.7z"/>
     <path transform="matrix(-.0863 .0289 -.0363 -.1086 203.9 721.8)" d="m-263.4 21.52c0 41.19-42.9 74.58-95.8 74.58s-95.8-33.39-95.8-74.58v-0.7l95.8 0.7z"/>
    </g>
   </g>
   <path d="m395.4 559.8c-14.7 4.4-29 10.9-38.7 21.9-4.8 4.4-4.3 10.6-4.3 16.2 0.1 16.2-1.7 32.5-0.6 48.5 1.2 9.1 7.2 18.8 16.6 22.9-11.9-1.9-22.1-13.9-21.2-31.3l1.3-50c8.8-15.7 31.2-24.1 46.9-28.2z" fill="#675c3e" fill-opacity=".3026" fill-rule="evenodd"/>
  </g>
  <g transform="matrix(-.8669 -.4983 -.4983 .8669 846.8 302.6)">
   <g transform="matrix(-1.287 -.5485 -.6257 1.128 685.8 -163)">
    <path d="m-95.1 693.9c-9-4-11.9-17.7-6.3-30.8l27.6-59.6c8.9 7.7 22.1 21.9 22.2 37.3l-17.1 37.3c-6 13.9-17.9 19.4-26.4 15.8z" fill="#beb393" fill-rule="evenodd"/>
    <g transform="matrix(.399 .0804 .0804 -.399 -246.4 948)" fill="#4d4d4d">
     <path transform="matrix(.091 0 0 -.1145 285.4 707.6)" d="m-263.4 21.52c0 41.19-42.9 74.58-95.8 74.58s-95.8-33.39-95.8-74.58v-0.7l95.8 0.7z"/>
     <path transform="matrix(.0863 .0289 .0363 -.1086 301.9 721.8)" d="m-263.4 21.52c0 41.19-42.9 74.58-95.8 74.58s-95.8-33.39-95.8-74.58v-0.7l95.8 0.7z"/>
     <path transform="matrix(.0545 -.0373 -.0469 -.0686 239.8 704)" d="m-263.4 21.52c0 41.19-42.9 74.58-95.8 74.58s-95.8-33.39-95.8-74.58v-0.7l95.8 0.7z"/>
     <path transform="matrix(-.0863 .0289 -.0363 -.1086 203.9 721.8)" d="m-263.4 21.52c0 41.19-42.9 74.58-95.8 74.58s-95.8-33.39-95.8-74.58v-0.7l95.8 0.7z"/>
    </g>
   </g>
   <path d="m395.4 559.8c-14.7 4.4-29 10.9-38.7 21.9-4.8 4.4-4.3 10.6-4.3 16.2 0.1 16.2-1.7 32.5-0.6 48.5 1.2 9.1 7.2 18.8 16.6 22.9-11.9-1.9-22.1-13.9-21.2-31.3l1.3-50c8.8-15.7 31.2-24.1 46.9-28.2z" fill="#675c3e" fill-opacity=".3026" fill-rule="evenodd"/>
  </g>
  <path d="m305.5 541.3c-47.7 0-88.4 18.1-103.6 60.3 2.4 3.6 5 6.9 8.1 9.8 35.6 33.7 150.9 33.9 186.5 0.5 4.4-4.2 8-9 11-14.4-16.4-40-55.8-56.2-102-56.2z" fill="#dbd2ad"/>
  <path d="m330.6 549.8c-5.9-10-43.9-9.7-49.6 0.3-5.7 10.1 13.5 32.2 25.1 32.1 11.5-0.1 30.4-22.5 24.5-32.4z" fill="#373328" fill-rule="evenodd"/>
  <path transform="matrix(.095 0 0 .0924 333.7 603.8)" d="m-291.4-221.9a228.6 211.4 0 0 1 -184.1 207.36" fill="none" stroke="#373328" stroke-linecap="round" stroke-linejoin="round" stroke-width="32.02"/>
  <path transform="matrix(-.095 0 0 .0924 278.3 603.8)" d="m-291.4-221.9a228.6 211.4 0 0 1 -184.1 207.36" fill="none" stroke="#373328" stroke-linecap="round" stroke-linejoin="round" stroke-width="32.02"/>
  <g transform="translate(2,4)" fill-rule="evenodd">
   <path transform="matrix(.1097 0 0 .1153 284.5 604.3)" d="m-288.6-577.6c0 108.1-92.1 195.7-205.7 195.7s-205.7-87.6-205.7-195.7 92.1-195.7 205.7-195.7 205.7 87.6 205.7 195.7z" fill="#efede3"/>
   <path transform="matrix(.0931 0 0 .0978 277 595.1)" d="m-288.6-577.6c0 108.1-92.1 195.7-205.7 195.7s-205.7-87.6-205.7-195.7 92.1-195.7 205.7-195.7 205.7 87.6 205.7 195.7z" fill="#373328"/>
   <path transform="matrix(.0171 0 0 .0179 246.1 541.2)" d="m-288.6-577.6c0 108.1-92.1 195.7-205.7 195.7s-205.7-87.6-205.7-195.7 92.1-195.7 205.7-195.7 205.7 87.6 205.7 195.7z" fill="#fff"/>
  </g>
  <g transform="translate(0,4)" fill-rule="evenodd">
   <path transform="matrix(.1097 0 0 .1153 433 603.6)" d="m-288.6-577.6c0 108.1-92.1 195.7-205.7 195.7s-205.7-87.6-205.7-195.7 92.1-195.7 205.7-195.7 205.7 87.6 205.7 195.7z" fill="#efede3"/>
   <path transform="matrix(.0931 0 0 .0978 423.7 595.1)" d="m-288.6-577.6c0 108.1-92.1 195.7-205.7 195.7s-205.7-87.6-205.7-195.7 92.1-195.7 205.7-195.7 205.7 87.6 205.7 195.7z" fill="#373328"/>
   <path transform="matrix(.0171 0 0 .0179 392.7 541.2)" d="m-288.6-577.6c0 108.1-92.1 195.7-205.7 195.7s-205.7-87.6-205.7-195.7 92.1-195.7 205.7-195.7 205.7 87.6 205.7 195.7z" fill="#fff"/>
  </g>
  <g transform="translate(0,-20)">
   <path d="m254.6 689.4c-20.7 0-38.2 14.2-43.4 33.5 0.5 14 2.8 27.1 7.2 31.5 9.7 9.7 62.4 9.7 72.1 0 4.4-4.5 6.8-18 7.2-32.4-5.5-18.8-22.7-32.6-43.1-32.6z" fill="#beb393"/>
   <path d="m249 721h6.1c13.5 0 24.4 7.6 24.4 16.9s-10.9 16.7-24.4 16.7h-6.1c-13.4 0-24.3-7.4-24.3-16.7s10.9-16.9 24.3-16.9z" fill="#e3d69e"/>
   <path d="m358.3 689.4c20.7 0 38.2 14.2 43.4 33.5-0.5 14-2.8 27.1-7.2 31.5-9.7 9.7-62.4 9.7-72.1 0-4.4-4.5-6.8-18-7.2-32.4 5.5-18.8 22.7-32.6 43.1-32.6z" fill="#beb393"/>
   <path d="m363.7 721.6h-6.1c-13.5 0-24.4 7.6-24.4 16.9s10.9 16.7 24.4 16.7h6.1c13.4 0 24.3-7.4 24.3-16.7s-10.9-16.9-24.3-16.9z" fill="#e3d69e"/>
   <g transform="translate(0,8)" fill="#4d4d4d">
    <path transform="matrix(.091 0 0 -.1145 285.4 707.6)" d="m-263.4 21.52c0 41.19-42.9 74.58-95.8 74.58s-95.8-33.39-95.8-74.58v-0.7l95.8 0.7z"/>
    <path transform="matrix(.0863 .0289 .0363 -.1086 301.9 721.8)" d="m-263.4 21.52c0 41.19-42.9 74.58-95.8 74.58s-95.8-33.39-95.8-74.58v-0.7l95.8 0.7z"/>
    <path transform="matrix(.0545 -.0373 -.0469 -.0686 239.8 704)" d="m-263.4 21.52c0 41.19-42.9 74.58-95.8 74.58s-95.8-33.39-95.8-74.58v-0.7l95.8 0.7z"/>
    <path transform="matrix(-.0863 .0289 -.0363 -.1086 203.9 721.8)" d="m-263.4 21.52c0 41.19-42.9 74.58-95.8 74.58s-95.8-33.39-95.8-74.58v-0.7l95.8 0.7z"/>
   </g>
   <g transform="matrix(-1,0,0,1,613.3,8)" fill="#4d4d4d">
    <path transform="matrix(.091 0 0 -.1145 285.4 707.6)" d="m-263.4 21.52c0 41.19-42.9 74.58-95.8 74.58s-95.8-33.39-95.8-74.58v-0.7l95.8 0.7z"/>
    <path transform="matrix(.0863 .0289 .0363 -.1086 301.9 721.8)" d="m-263.4 21.52c0 41.19-42.9 74.58-95.8 74.58s-95.8-33.39-95.8-74.58v-0.7l95.8 0.7z"/>
    <path transform="matrix(.0545 -.0373 -.0469 -.0686 239.8 704)" d="m-263.4 21.52c0 41.19-42.9 74.58-95.8 74.58s-95.8-33.39-95.8-74.58v-0.7l95.8 0.7z"/>
    <path transform="matrix(-.0863 .0289 -.0363 -.1086 203.9 721.8)" d="m-263.4 21.52c0 41.19-42.9 74.58-95.8 74.58s-95.8-33.39-95.8-74.58v-0.7l95.8 0.7z"/>
   </g>
  </g>
 </g>
</svg>
