<?xml version="1.0" encoding="UTF-8"?>
<svg enable-background="new 0 0 1398.31 1692.997" version="1.1" viewBox="0 0 1398.31 1692.997" xmlns="http://www.w3.org/2000/svg">
 <path d="m605.32 55.429c3.331-3.449 6.371-7.914 11.38-8.93 4.538 0.944 8.295 3.884 12.025 6.471 9.738 7.396 18.55 15.909 27.298 24.431 13.667 13.558 27.017 27.453 40.721 40.975 5.999 7.287 12.333 14.293 18.586 21.354 24.93 28.451 48.77 58.118 67.883 90.843 16.644 28.886 29.322 60.641 32.961 93.965 1.143 14.203 0.78 28.533-0.989 42.672-1.325 10.836-2.369 22.198-7.841 31.863 4.583 6.217 10.064 11.771 14.067 18.414 4.538 7.542 9.239 14.992 13.903 22.461 7.723 11.625 12.606 24.803 19.221 37.036 3.748 6.217 5.218 13.422 8.104 20.029 2.323-0.082 4.665-0.172 7.006-0.272 0.762-7.396 5.128-13.722 10.119-18.967 3.857-3.975 9.266-5.736 14.457-7.233 9.239-2.895 19.593-2.36 28.333 1.906 10.545 4.973 18.65 13.776 25.438 23.033 10.255 0.29 20.546-0.445 30.783 0.563 25.002 2.187 49.714 6.734 74.381 11.235-0.245 2.278-0.663 4.529-1.062 6.788-19.367-3.476-38.661-7.542-58.29-9.23-13.731-1.298-27.507-1.942-41.292-2.323 4.102 7.333 7.287 15.192 8.894 23.469 8.93-4.165 18.142-8.367 28.061-9.375 10.073-1.761 20.528-2.26 30.547 0.091 8.44 1.933 16.072 7.151 21.027 14.239 2.36 3.276 2.795 7.369 3.385 11.253 0.2 1.688 2.187 2.178 3.521 2.75 5.754 1.652 11.144 4.855 14.983 9.484 3.576 4.882 4.411 11.108 4.846 16.989 0.109 2.841 1.298 5.536 3.285 7.578 4.637 5.01 8.739 10.772 10.554 17.443 1.661 6.09 1.016 12.642-1.298 18.477-3.113 7.995-8.503 14.793-13.84 21.408-7.759 10.11-18.94 16.889-30.121 22.597-3.857 2.051-8.195 2.804-12.206 4.42 0.962 0.463 1.933 0.944 2.922 1.443-4.32 0.182-8.649-0.191-12.932 0.318-11.925 1.87-24.213 2.378-36.138 0.281-3.512 3.957-8.821 6.153-11.371 10.963-9.465 15.628-19.049 31.192-28.451 46.874-9.738 15.736-17.933 32.344-26.364 48.807-3.485 6.698-6.434 13.785-11.353 19.612-17.18 23.251-36.637 44.687-54.633 67.284 20.828 29.966 41.065 60.341 61.748 90.417 4.456 6.743 9.438 13.159 13.268 20.301 1.053 1.924 2.242 3.794 3.43 5.663 7.496-2.795 14.157-7.278 21.463-10.473 11.38-5.681 22.67-11.907 32.308-20.283 4.91-5.382 9.511-11.036 14.321-16.508 5.545-7.914 10.536-16.199 15.582-24.44 5.445-9.13 10.092-18.722 15.854-27.661 6.525-10.845 16.962-18.722 27.934-24.694 11.126-5.926 23.432-9.474 35.92-10.999 13.658-1.116 27.335 0.463 40.938 1.624 4.501 0.408 9.003 1.289 13.558 0.889 6.353-0.49 12.714 0.871 19.067 0.1 9.03-1.488 16.626-7.179 25.483-9.23 2.242-0.662 4.383-1.643 6.67-2.196 2.35-0.744 5.209 1.461 4.728 4.011-1.252 8.404-4.338 16.826-10.237 23.087-5.844 6.325-12.624 11.78-20.02 16.172-15.528 7.932-31.391 15.21-47.736 21.309-12.261 4.719-24.703 8.966-36.827 14.021-2.986 1.016-4.837 3.657-6.634 6.062-8.966 12.542-16.19 26.182-24.131 39.368-6.117 10.618-12.542 21.064-18.396 31.836 7.079-4.374 13.831-9.284 20.555-14.185 5.445-4.456 11.671-7.759 17.642-11.435 14.901-8.685 31.745-13.549 48.807-15.582 8.013-0.917 16.535-2.596 24.294 0.526 5.754 2.251 9.711 7.224 13.731 11.68 6.716 8.168 12.442 17.606 14.312 28.16 1.425 7.65 1.625 15.473 1.534 23.251-0.345 23.65-2.296 47.255-5.046 70.741-1.125 10.836-3.975 21.399-5.273 32.208 5.636-3.812 10.482-8.658 15.564-13.168 11.653-10.8 23.015-22.307 30.874-36.256 7.623-13.086 15.219-26.618 26.845-36.637 6.697-5.518 13.204-11.607 21.327-14.965 6.126-2.505 13.005-3.585 19.557-2.314 7.886 2.35 13.885 8.776 17.86 15.764 7.024-1.77 14.339-1.325 21.508-1.053 6.226 0.218 12.288 2.695 16.889 6.906 5.055 4.619 9.747 9.674 13.976 15.083 6.171 7.868 9.783 17.678 10.3 27.661 1.307 10.318 0.145 20.964-3.712 30.638-0.998 1.479-2.487 2.514-3.803 3.667 3.666 4.274 6.643 9.402 7.115 15.128 0.563 7.342-0.626 15.165-5.046 21.254-5.772 8.304-13.44 15.346-22.153 20.465-11.725 5.608-24.185 9.756-37.027 11.843-1.67 5.917-3.866 11.916-8.141 16.49-6.244 6.471-12.678 12.751-19.058 19.085-9.692 8.367-20.102 15.945-31.164 22.398-5.409 3.784-11.68 5.926-17.597 8.73-13.822 6.099-27.788 11.88-42 16.98-15.001 5.454-30.702 8.504-46.293 11.68-16.272 1.906-33.923 3.902-49.088-3.739-6.652-3.439-11.789-9.565-14.049-16.68-2.686-7.941-2.051-16.698 0.79-24.503 0.699-2.614 2.405-5.109 1.933-7.905-2.85-30.066-5.454-60.169-8.485-90.217-6.634 4.047-12.642 9.048-19.103 13.377-14.938 10.509-28.687 22.67-41.501 35.656-18.613 20.428-36.691 41.347-55.404 61.684-1.897 2.124-4.728 3.004-6.825 4.882-7.533 6.688-15.183 13.277-22.026 20.682-12.134 12.978-24.603 25.619-37.009 38.334-5.109 5.164-9.974 10.573-15.419 15.392-22.497 19.494-44.823 39.232-66.149 60.005 7.768 14.865 15.128 30.148 19.149 46.52 3.639 14.148 4.456 28.841 4.483 43.398-0.227 8.15 0.699 16.417-0.962 24.476-1.634 8.921-3.603 17.797-5.972 26.563-1.452 5.345-2.804 10.772-5.227 15.791-4.238 8.903-8.676 17.724-13.622 26.273-1.915 3.14-3.748 6.407-6.289 9.102-6.598 6.153-12.415 13.078-18.051 20.102-4.238 4.828-3.04 11.834-5.282 17.461-4.048 6.271-6.843 13.35-11.671 19.121-4.519 5.627-10.391 10.264-17.17 12.851-8.113 3.176-17.143 3.203-25.601 1.579-4.955-0.898-9.683-2.895-14.747-3.149-2.995-0.436-5.817 0.853-8.603 1.697-8.05 2.559-16.09 6.153-24.73 5.663-8.013-0.436-16.154-0.944-23.95-2.85-9.674-5.672-18.005-13.486-24.957-22.243-2.822-3.448-4.883-7.396-6.852-11.353-3.458-3.512-8.603-5.245-11.163-9.665-4.238-7.36-7.56-15.764-6.434-24.422 0.581-9.892 5.808-18.631 11.426-26.491 2.187-3.04 5.572-4.846 8.685-6.77 4.166-2.423 8.449-4.955 13.286-5.69 4.81-0.826 9.892-1.597 14.62 0.073 3.195 1.098 7.36 1.77 9.91-1.007 8.086-7.387 16.036-15.029 23.051-23.441-4.61-1.207-9.284 0.036-13.94-0.073-8.667 0.063-17.624-1.906-24.712-7.07-6.099-4.338-10.4-10.754-13.241-17.579-4.147-10.001-5.545-20.864-6.28-31.582-0.526-9.983-1.071-20.056 0.554-29.975 1.425-16.091 3.993-32.135 8.966-47.545 6.561-21.39 16.535-41.483 24.884-62.184 6.643-16.472 14.738-32.326 20.946-48.97 3.34-9.529 5.962-19.294 8.177-29.132 2.051-8.975 0-18.087-1.488-26.963-7.877-43.071-16.299-86.042-24.24-129.1-1.207-7.106-3.585-13.931-5.445-20.873-9.402-32.707-18.604-65.469-28.106-98.149-4.093 1.407-8.422 2.541-11.798 5.391-14.784 11.208-29.903 22.017-44.142 33.923-24.204 21.799-46.456 45.721-67.129 70.878-10.255 12.987-21.436 25.202-31.936 37.989 12.651 7.487 25.456 15.038 36.165 25.229 2.786 2.314 5.109 5.336 8.44 6.915 5.1 0.935 10.391 0.181 15.328-1.298 7.088-2.142 15.019-3.285 22.144-0.79 6.598 4.075 9.856 12.025 10.201 19.548 1.543 13.758-5.608 27.879-16.943 35.584-8.304 5.618-18.976 5.79-28.442 3.648-7.442-1.806-14.303-5.427-21.744-7.206-3.086-0.454-6.516-0.408-9.239 1.289-2.868 2.16-2.732 6.171-2.741 9.411 0.499 10.609 2.487 21.136 2.105 31.8-0.49 12.297 0.481 24.893-2.959 36.882-1.933 7.006-6.371 13.667-13.132 16.78-5.118 2.677-11.072 1.879-16.608 1.679-4.265-0.063-7.287-3.476-10.291-6.044-7.188-6.443-9.828-16.054-13.35-24.694-3.803-9.747-4.156-20.274-5.472-30.511-4.429 8.259-4.293 18.269-9.384 26.264-7.414 13.449-17.388 25.547-29.649 34.849-5.99 4.429-13.186 7.932-20.828 7.414-8.64-0.318-17.352-7.351-17.615-16.354-0.236-3.92 1.098-7.669 2.169-11.362-7.714-2.841-11.208-11.017-12.624-18.532-1.779-8.286 0.454-16.835 3.803-24.431 5.59-12.242 13.622-23.242 18.777-35.693 1.153-4.093 0.2-8.367 0.327-12.533 0.064-17.433 6.843-34.023 15.237-49.006 2.178-4.12 4.919-7.932 6.879-12.161 6.071-17.787 9.72-36.319 15.836-54.088 5.981-16.09 14.148-31.237 21-46.955 16.635-36.646 32.299-73.927 53.29-108.37 10.073-16.662 24.449-29.966 37.399-44.287-7.905-0.254-15.791 0.699-23.695 0.554-20.474 0.118-40.884-1.461-61.267-3.049-14.756 30.711-26.291 62.846-36.519 95.317-4.057 12.351-8.349 24.639-11.861 37.163-2.051 7.124-3.131 14.466-4.574 21.735-3.113 16.835-6.489 33.633-9.52 50.495-3.249 0.118-6.489-0.091-9.629-0.898 4.156-22.116 8.413-44.214 12.678-66.304 3.303-11.371 7.024-22.615 10.5-33.932 5.164-15.628 9.102-31.691 15.7-46.801 7.977-19.203 15.174-38.742 23.859-57.637-14.965-1.216-29.921-2.514-44.795-4.547-12.615 12.469-23.078 26.863-34.141 40.675-10.446 13.005-20.465 26.364-29.64 40.294-9.311 14.321-18.659 28.623-27.489 43.243-8.44 13.922-14.393 29.122-20.201 44.269-7.26 19.902-9.828 41.065-14.702 61.594-3.267 0.055-6.607 0.055-9.638-1.343 3.131-11.789 6.108-23.614 9.166-35.421 1.779-6.353 2.85-12.95 5.554-19.003 4.665-11.653 9.13-23.378 14.121-34.894 2.632-5.817 4.302-12.125 7.977-17.424 11.117-17.633 22.18-35.303 33.27-52.954 2.94-5.091 6.797-9.547 10.3-14.23 11.317-14.711 22.634-29.404 33.932-44.115 3.303-4.193 7.242-7.814 10.745-11.825-12.415-2.087-24.83-4.129-37.263-6.099-5.745-0.662-10.863-3.503-16.254-5.345-7.151 5.981-13.449 12.878-20.056 19.448-12.243 12.551-25.039 24.576-36.936 37.472-21.209 22.842-38.86 48.789-53.607 76.214-9.62 17.098-16.644 35.466-23.287 53.88-3.403-0.018-6.906 0.753-9.937-1.334 3.848-10.509 7.777-20.991 11.653-31.5 1.125-3.058 2.133-6.18 3.712-9.03 5.481-9.919 10.954-19.839 16.426-29.767 2.441-4.202 4.383-8.73 7.514-12.478 12.415-15.446 24.539-31.119 37.063-46.474 19.675-19.775 39.514-39.387 58.644-59.697-9.556-3.939-19.294-7.414-28.905-11.19-2.75-1.153-5.636-1.86-8.522-2.505-4.193-0.78-7.369-3.866-11.317-5.255 2.75-8.549 2.968-17.561 4.229-26.373 1.352-9.928 2.105-19.956 1.543-29.966-1.007-11.144-5.028-21.69-8.467-32.244-6.389-19.294-12.996-38.534-17.96-58.254-2.65-9.248-4.619-18.722-7.56-27.861-15.691-16.363-30.892-33.234-46.728-49.469-22.616-21.79-41.646-47.137-57.238-74.353-15.773-27.725-29.377-56.702-40.403-86.641-3.939-10.582-8.05-21.1-11.889-31.718-3.494-9.493-6.452-19.176-10.455-28.469-3.331-9.039-7.451-18.514-6.108-28.351 0.826-5.763 6.552-8.912 11.743-10.001 17.86-4.129 36.119-6.235 54.352-7.905 12.887-1.234 25.846-1.534 38.679-3.231 24.349-1.044 48.743-0.898 73.11-0.39 13.431 0.88 27.035 0.726 40.24 3.666 19.956 2.813 39.586 7.523 58.962 12.996 7.079 2.142 14.194 4.256 21.045 7.088 13.577 6.661 26.763 14.121 40.385 20.692 10.536-3.621 20.428-9.075 30.184-14.475 22.234-11.743 45.748-20.873 69.661-28.551 2.732-22.198 4.102-44.578 7.705-66.667 1.016-5.826 1.597-11.743 3.24-17.443 2.968-10.763 6.325-21.427 9.71-32.063 2.078-5.962 3.539-12.215 6.915-17.624 9.783-16.807 19.466-33.678 29.667-50.241 5.146-9.057 12.37-16.662 18.586-24.966 16.944-21.651 34.369-42.933 52.474-63.615m11.398-2.215c-2.441 8.939-2.015 18.314-2.459 27.48-0.544 8.667-0.653 17.343-0.862 26.019-0.826 16.054-1.724 32.117-3.149 48.135-2.323 30.856-6.452 61.585-7.151 92.549-0.481 17.679-1.407 35.62 2.45 53.027 0.154 1.615 1.724 2.124 3.131 1.824 12.605-1.271 25.275-0.272 37.907 0.082 20.456 1.706 40.421 7.269 59.606 14.421 14.647 5.599 28.696 12.887 41.401 22.107 15.528 11.163 29.059 24.821 41.692 39.096 4.637 4.855 8.376 10.527 13.422 14.992 1.379-2.886 2.459-5.917 3.122-9.048 4.456-20.492 5.772-41.71 3.539-62.583-5.781-41.846-25.138-80.525-49.17-114.79-22.488-32.063-48.952-61.04-75.379-89.845-16.735-18.023-33.515-36.101-51.983-52.391-5.018-4.147-9.946-8.712-16.117-11.072m-53.38 68.192c-7.07 8.721-14.729 17.043-20.592 26.663-8.839 13.958-17.769 27.879-25.674 42.399-9.91 18.259-15.265 38.552-19.348 58.808-3.812 18.559-5.763 37.417-8.05 56.203-0.653 6.688-1.879 13.322-1.987 20.056-0.118 2.532-0.545 5.409-2.668 7.088-2.087 1.606-4.755 2.051-7.215 2.75-8.286 1.96-16.081 5.445-23.868 8.785-17.57 7.641-34.976 15.655-52.183 24.086-15.373 7.179-28.859 17.67-43.77 25.701-0.835-1.86-3.04-3.648-2.677-5.708 5.99-3.784 12.297-7.079 18.069-11.199-7.923-4.311-16.181-7.959-24.322-11.807-18.405-8.386-37.19-16.227-56.847-21.154-39.886-9.502-81.133-11.281-121.99-10.554-14.266-0.027-28.487 1.352-42.654 2.895-20.9 2.278-41.864 4.02-62.692 6.979 2.423 1.316 5.227 1.643 7.832 2.478 25.601 7.369 50.821 16.109 76.786 22.189 15.001 3.921 30.348 6.244 45.449 9.729 16.399 3.576 32.544 8.349 48.126 14.575 13.449 5.255 26.6 11.879 37.399 21.599 7.242 5.717 12.342 13.504 17.025 21.327-3.766 5.291-8.758 9.529-12.878 14.52-9.438 10.337-18.468 21.064-26.345 32.644-7.841 11.48-16.68 22.679-21.118 36.038-3.494 9.847-7.179 19.63-10.446 29.558-3.176 10.845-4.665 22.098-5.699 33.324-0.826 8.767-1.906 17.506-2.251 26.318 0.427 12.324 1.497 24.621 2.623 36.891 6.434 25.928 15.056 51.23 22.897 76.74 3.675 12.179 9.03 23.841 11.725 36.31 1.77 7.669 0.835 15.573 0.499 23.351-0.853 12.497-3.113 24.839-5.609 37.09 10.237 3.893 20.555 7.551 30.883 11.199 5.436 1.706 10.663 4.247 16.245 5.409 14.121-10.437 28.133-21.046 42.2-31.573 5.445-3.948 10.555-8.385 16.435-11.689 8.077-4.801 16.072-9.729 24.195-14.448 1.225 1.742 2.332 3.585 3.322 5.49-12.351 7.605-25.392 14.203-36.755 23.287-14.103 10.564-28.206 21.118-42.272 31.718 5.527 2.369 11.498 3.34 17.316 4.737 12.406 2.614 24.875 5.1 37.481 6.525 16.807-17.588 33.651-35.176 51.711-51.502 1.47 1.479 2.904 2.995 4.302 4.565-16.481 15.51-32.635 31.382-47.981 48.017 14.838 1.579 29.658 3.557 44.559 4.256 6.661-12.941 12.978-26.073 19.902-38.878 1.888 0.88 3.766 1.824 5.572 2.904-6.071 12.025-12.324 23.968-18.223 36.074 34.032 1.86 68.309 5.708 102.3 1.225 0.318 2.096 0.599 4.211 0.663 6.353-2.405 0.472-5.772-0.2-7.124 2.387-4.193 6.262-9.638 11.535-14.611 17.161-14.094 14.82-26.581 31.328-35.657 49.714-8.122 14.983-16.544 29.839-23.523 45.403-8.839 18.777-17.715 37.553-26.046 56.566-6.38 15.146-14.13 29.767-19.031 45.503-3.022 9.393-6.806 18.568-8.903 28.242 1.271-0.898 2.45-1.979 3.893-2.595 7.841-2.94 15.972-5.509 24.431-5.572 10.754-0.526 21.154 2.632 31.536 4.901 3.213 1.089 6.08 2.949 9.166 4.356 22.915-27.933 46.102-55.658 69.317-83.338 11.38-12.016 25.02-21.554 37.526-32.317 13.105-11.299 26.736-22.08 41.483-31.164 6.734-3.685 13.994-6.326 21.327-8.522 6.825 23.958 12.297 48.262 18.586 72.357 4.783 18.523 10.246 36.854 14.62 55.477 5.046 21.209 9.093 42.645 13.086 64.071 3.321 16.889 5.881 33.923 9.819 50.694 2.459 11.29 5.527 22.615 5.518 34.268 0.109 10.364-2.378 20.555-5.654 30.32-4.637 13.413-10.427 26.391-16.009 39.432-7.977 18.232-16.408 36.274-24.567 54.433-8.921 20.083-12.959 41.792-17.642 63.127-3.276 17.388-4.628 35.502-1.08 52.963 1.506 8.431 6.162 15.8 10.809 22.824 3.939 6.144 11.389 8.44 18.114 10.037 8.15 1.951 16.798 1.543 24.666-1.407 9.983-2.986 18.495-9.166 27.062-14.865 9.856-6.643 19.158-14.058 28.351-21.581 6.18-4.964 13.214-9.257 17.488-16.154 4.492-7.26 6.38-15.736 8.939-23.786 2.831-9.066 3.939-19.23 10.573-26.554 5.082-5.482 10.564-10.582 15.655-16.063 24.576-25.129 51.756-47.491 77.956-70.859 13.368-12.978 25.601-27.053 38.67-40.312 8.558-8.694 17.461-17.062 25.32-26.418 1.997-2.214 3.857-4.574 6.117-6.543 1.897-1.833 4.928-1.443 6.897-3.149 27.87-26.899 49.551-59.924 80.27-83.919 12.488-9.602 24.703-19.557 37.263-29.068 1.506-0.88 1.434-2.795 1.833-4.274 0.962-5.99 2.332-11.934 2.414-18.014 0.454-7.36 0.563-15.137 4.338-21.699 2.096-9.021 2.968-18.323 5.128-27.335 0.136 19.684-0.091 39.368 0.154 59.052 0.073 11.271 1.488 22.47 2.36 33.696 2.033 21.762 3.703 43.561 5.291 65.36 9.665-14.738 20.809-28.569 33.796-40.512 11.934-11.716 23.287-24.031 33.66-37.145 3.548-4.756 7.36-9.466 9.384-15.119 3.875-9.42 4.556-19.675 6.044-29.64 3.594-25.619 6.562-51.429 6.226-77.339-0.245-13.949-2.069-28.542-9.847-40.485-3.839-5.69-8.204-11.535-14.448-14.693-5.826-2.078-12.188-1.125-18.169-0.408-17.071 2.723-33.696 7.986-49.56 14.802-7.569 3.077-13.931 8.286-20.401 13.132-10.273 7.877-20.392 15.945-30.738 23.732-4.447 3.421-9.148 6.525-13.286 10.337-3.893 3.576-8.667 5.917-13.214 8.522-2.94 1.779-6.489 1.243-9.729 1.815-16.571 2.242-33.524-3.467-46.565-13.622-6.725-6.434-12.143-14.094-16.962-22.016-6.997-12.115-15.355-23.36-23.006-35.049-21.635-32.117-43.089-64.361-64.625-96.542 19.103-23.278 38.17-46.592 57.065-70.043 5.881-7.024 9.22-15.646 13.431-23.677 7.251-14.112 14.411-28.297 22.679-41.846 10.291-17.443 20.991-34.64 31.518-51.938 2.205-3.567 6.126-5.5 8.821-8.64-5.835-4.229-11.707-8.44-17.07-13.259-7.859-6.389-14.13-14.439-20.056-22.579-3.766-5.037-6.08-10.918-9.23-16.308-11.498 10.21-23.287 20.074-35.148 29.848-12.17 10.936-25.247 20.782-38.198 30.756-16.816 12.832-33.56 25.755-50.295 38.688-4.293 3.53-9.221 6.425-12.587 10.945-16.662 20.719-34.05 40.975-53.707 58.944-1.47-1.516-2.922-3.049-4.311-4.61 24.122-22.534 45.267-48.017 65.396-74.117 10.337-12.814 20.909-25.647 28.651-40.267 7.496-14.076 14.484-28.569 18.704-44.006 2.958-10.609 6.062-21.182 8.676-31.872-12.034-1.906-23.741-6.707-36.056-6.008 0.027-2.087-9e-3 -4.175-0.091-6.244 3.258-0.309 6.57-0.454 9.838 0 9.402 1.86 18.704 4.293 28.151 5.971 2.75-9.248 4.755-18.731 7.859-27.852 4.402-2.904 9.466-4.665 13.794-7.696-1.035-1.57-1.978-3.185-2.822-4.846-23.333 4.075-46.501 9.139-69.798 13.431-1.615-1.407-1.053-4.12-1.715-6.062 21.998-4.465 44.015-8.83 66.077-12.914-0.445-0.771-0.862-1.516-1.289-2.26 0.336-0.327 1.007-0.98 1.343-1.298-3.911-7.614-5.835-16.045-8.948-23.986-20.773 0.182-41.165 4.438-61.693 7.033-0.272-2.087-0.563-4.156-0.844-6.226 19.884-2.859 39.713-6.679 59.851-7.124-0.481-3.449-2.124-6.571-3.367-9.774-2.741-6.743-5.853-13.322-9.465-19.63-6.598-11.834-13.214-23.65-19.802-35.484-3.53-6.071-6.58-12.497-11.217-17.833-12.106-14.793-23.596-30.139-36.818-43.97-9.411-9.711-19.076-19.421-30.584-26.645-6.607-4.265-13.141-8.658-19.839-12.778-15.791-9.293-33.787-13.513-51.166-18.722-11.244-3.458-23.069-3.957-34.722-4.764-12.279-1.298-24.612 0.163-36.9 0.218-1.098-2.369-2.042-4.819-2.441-7.405-1.261-7.396-2.423-14.829-2.822-22.325-0.318-9.683 0.064-19.367 0.218-29.05 0.299-7.723-0.191-15.491 0.862-23.178 0.753-11.326 1.697-22.634 2.741-33.932 1.606-23.659 4.728-47.2 5.854-70.896 1.334-17.57 0.735-35.248 2.541-52.782-15.518 16.934-30.428 34.432-45.157 52.065m-516.25 225.17c-2.577 1.153-2.496 4.61-2.332 7.015 1.361 11.616 7.16 22.007 10.809 32.97 9.112 26.672 19.394 52.954 31.282 78.51 15.364 32.852 33.224 64.688 55.168 93.629 15.192 20.555 33.551 38.425 51.221 56.811 4.175 3.948 7.723 8.585 12.252 12.161 2.278 3.167 5.073 5.908 8.131 8.322-0.172-5.599-0.1-11.29-1.434-16.762 0.372-5.363-0.036-10.745 0.118-16.118 1.579-29.077 6.126-58.39 17.742-85.298 4.728-12.551 12.233-23.75 19.639-34.84 9.638-14.021 20.682-27.017 32.008-39.695 2.532-2.922 5.418-5.554 7.514-8.83-6.298-9.583-14.529-17.951-24.249-24.086-11.389-7.297-24.167-12.007-36.791-16.671-22.625-7.914-46.266-12.288-69.789-16.553-6.779-1.334-13.667-2.187-20.292-4.165-26.019-8.295-51.919-16.971-78.238-24.285-4.183-0.944-8.412-2.75-12.759-2.115m837.29 138.53c-4.665 4.665-7.723 11.326-6.725 18.005 1.134 7.814 6.062 14.511 11.689 19.802 9.838 8.921 21.935 15.473 29.975 26.282 5.772 7.605 8.05 17.306 8.095 26.727 0.073 4.846-1.107 9.638-0.653 14.493 0.908 10.364 4.81 20.274 10.328 29.032 1.933 2.832 3.503 6.071 6.189 8.277 8.676 3.803 18.214 5.518 26.563 10.128-0.318 2.16-1.325 4.084-2.677 5.772-2.623-1.379-5.345-2.568-8.204-3.322 1.044 2.904 1.933 6.144 4.42 8.204 4.81 3.911 9.892 7.805 15.991 9.438 7.097 2.423 14.675 2.169 22.071 2.16-3.975-2.441-7.959-5.273-10.182-9.493-2.269-3.63-2.931-7.923-4.429-11.852-1.044-0.971-2.496-1.271-3.73-1.842-8.812-3.204-15.319-11.734-16.045-21.1-0.672-2.605 0.054-6.952-3.539-7.387-13.486-3.512-24.122-18.495-19.984-32.399 3.939-11.943 15.519-19.04 26.708-23.187 2.94-1.225 6.126-0.363 9.148 0.064 3.167-7.396 10.6-11.172 15.882-16.798 2.296-2.505 5.364-4.066 8.721-4.565 9e-3 1.987 0.027 3.993 0.036 5.999-5.128 3.576-9.42 8.186-14.275 12.115-4.737 3.821-4.91 10.237-6.407 15.655-1.897-0.354-3.775-0.699-5.654-1.044-0.027-1.597-0.018-3.185 9e-3 -4.764-2.096-0.644-4.374-1.162-6.452-0.218-7.632 3.158-15.464 7.387-19.775 14.756-2.405 3.793-3.049 8.576-1.824 12.896 2.668 8.395 10.3 15.183 19.212 16 15.192 1.643 29.903-5.236 41.583-14.448 6.516-5.009 11.017-11.997 16.363-18.123 2.55-3.004 5.5-5.863 6.679-9.738 1.506-4.665 3.648-9.13 4.81-13.885-0.127-4.565-0.608-9.52-3.412-13.304-4.774-6.108-11.961-10.083-19.612-11.199-16.971-2.305-34.132 2.332-49.133 10.155-2.904 1.37-7.324 4.147-9.756 0.581-1.833-4.147-1.57-8.912-3.158-13.159-4.592-13.568-12.851-25.937-23.723-35.275-6.888-5.944-15.873-10.092-25.148-9.184-7.705 0.243-14.729 4.309-19.975 9.745m-19.094 19.022c3.022 8.667 6.525 17.216 11.208 25.129 2.686 0 5.382 0.118 8.086 0.191-4.647-4.774-9.447-9.511-12.923-15.228-1.806-3.176-1.906-6.924-2.514-10.436-1.298 0.117-2.587 0.226-3.857 0.344m14.783 31.89c1.379 2.577 3.022 5.146 3.503 8.095-0.209 3.984-4.447 5.763-7.66 6.979-3.812 1.461-8.758 2.886-9.874 7.387-1.942 7.015-3.802 14.058-5.672 21.1 18.84 4.438 37.826 8.277 56.711 12.56-0.245-8.504 1.534-17.025 0.2-25.483-1.388-8.721-6.661-16.417-13.395-21.953-3.521-2.831-6.952-5.817-10.754-8.258-4.274-0.89-8.721-0.318-13.059-0.427m164.02 14.892c-2.16 4.601-3.557 9.493-5.391 14.212-1.171 3.067-3.648 5.327-5.681 7.805-5.754 6.625-10.645 14.094-17.47 19.72-6.316 5.218-13.422 9.502-20.991 12.651-6.834 3.049-14.312 3.821-21.635 4.783 0.245 5.509 1.243 11.444 5.064 15.682 3.775 4.447 9.62 6.589 15.319 7.042 7.405 0.49 15.183 0.073 21.962-3.249 9.366-4.619 18.06-10.691 25.293-18.241 9.166-9.329 15.764-20.819 20.809-32.798 0.889-2.006 0.309-4.211 0.145-6.289-0.59-4.864-0.917-10.164-3.984-14.221-3.494-3.811-8.249-6.57-13.44-7.097m22.053 32.925c-3.158 6.262-6.126 12.642-10.146 18.414-9.384 14.702-23.36 26.146-39.024 33.606-7.133 3.331-15.11 3.603-22.833 3.793 0.826 5.554 3.739 11.072 8.848 13.776 3.857 2.006 7.85 4.12 12.197 4.774 8.495-0.971 16.807-3.757 24.176-8.122 7.433-4.365 14.92-9.093 20.492-15.8 4.293-5.164 8.576-10.409 11.898-16.263 3.485-6.117 5.754-13.549 3.421-20.483-1.814-5.164-4.482-10.455-9.029-13.695m-207.79 2.868c-5.309 18.668-9.692 37.689-17.325 55.595-6.552 15.927-15.764 30.593-25.665 44.623 6.48-4.075 12.215-9.22 18.314-13.831 14.194-11.172 28.242-22.534 42.182-34.014 13.84-11.925 28.142-23.305 41.982-35.23 1.243-0.726 1.143-2.178 1.325-3.412-8.131-2.859-16.744-3.993-25.093-6.044-11.915-2.532-23.768-5.364-35.72-7.687m315.25 259.28c-6.861 3.603-14.766 3.857-22.325 3.349-3.748 0.018-7.886-0.862-11.271 1.162-0.554 3.712 1.044 7.505 0.826 11.308 0.445 5.899-1.107 11.634-3.267 17.07 13.812-5.454 27.87-11.035 39.876-19.956 5.627-4.383 11.716-10.291 10.899-18.096-5.454-0.773-9.919 3.293-14.738 5.163m-84.645 1.66c-6.552 0.417-13.105 1.343-19.385 3.276-11.308 3.303-21.163 10.4-29.041 19.031-11.208 12.306-19.657 26.772-27.743 41.229-6.589 11.462-14.067 22.534-23.469 31.89-11.625 11.653-25.892 20.238-40.575 27.435-5.981 2.922-12.333 5.436-17.406 9.838-1.715 1.171-1.942 3.458-0.79 5.118 3.367 6.035 7.986 11.28 12.551 16.435 4.619 4.783 9.157 10.064 15.446 12.669 9.937 4.374 21.209 6.344 31.945 4.165 7.133-1.425 13.813-5.018 18.84-10.282 16.063-16.952 25.701-38.561 38.043-58.127 8.15-13.803 14.72-28.778 25.401-40.902 11.144-11.961 27.044-17.452 41.801-23.505 6.888-2.614 15.074-5.245 18.205-12.633 2.723-7.342 1.742-15.491-0.064-22.924-0.236-1.779-2.459-1.216-3.666-1.497-13.339-0.925-26.716-2.105-40.093-1.216m168.75 174.14c-7.224 3.567-12.878 9.429-18.26 15.283-5.708 6.561-10.727 13.731-15.346 21.082-2.224 9.847-3.195 19.956-4.746 29.93-2.106-0.218-4.193-0.445-6.271-0.626 0.526-5.382 1.298-10.736 2.278-16.045-2.995 4.175-5.79 8.495-8.903 12.596-17.806 24.195-45.158 38.896-64.053 62.102-4.038 5.264-8.694 10.019-13.268 14.811-13.722 14.185-27.453 28.533-38.67 44.832-3.403 5.309-7.369 10.228-10.954 15.41-3.594 7.07-6.598 15.31-4.311 23.278 1.162 6.489 5.527 11.861 10.473 15.982 3.249 1.516 6.834 2.142 10.337 2.904 0.363-3.63 0.327-7.505 2.305-10.7 2.723-4.665 6.471-8.612 10.164-12.506 12.978-13.404 27.598-25.038 41.565-37.372 6.498-5.926 12.987-11.879 19.902-17.316 11.426-8.912 22.761-17.987 34.867-25.964 8.177-4.274 16.825-7.623 25.456-10.854 9.801-2.214 19.829-4.374 29.948-3.576 7.369 0.672 14.956 1.742 21.381 5.717 7.469 3.24 12.333 10.908 13.286 18.849 13.005-1.642 25.302-6.752 36.591-13.241 5.427-3.911 9.583-9.302 13.459-14.684 2.477-3.794 5.2-7.678 6.053-12.206 0.717-5.844-0.154-12.46-4.556-16.744-4.746 3.93-9.484 7.877-14.593 11.326-4.093 2.595-7.768 6.216-12.696 7.142-4.193 0.962-8.258 2.487-12.533 3.013-0.082-1.987-1.851-4.338-0.771-6.071 4.873-1.761 10.155-2.278 14.92-4.356 7.079-4.538 13.921-9.484 20.301-14.983 3.621-3.312 7.768-6.534 9.674-11.199 2.269-8.994 2.351-18.432 1.443-27.616-0.799-9.003-6.561-16.417-12.106-23.124-4.338-4.755-8.875-9.792-14.938-12.288-7.832-2.233-16.208-3.331-24.231-1.47 1.543 5.082 3.049 10.246 3.34 15.6 0.69 9.701-1.597 19.521-6.144 28.088-3.249 6.089-7.26 11.934-12.769 16.19-6.144 4.774-12.669 9.139-19.684 12.515-1.026-1.851-2.006-3.721-2.813-5.663 10.582-5.863 21.944-12.179 27.97-23.16 8.839-14.039 9.865-33.279 0.581-47.327-2.94-5.59-7.696-10.909-14.103-12.261-6.788-0.289-13.794 0.981-19.575 4.702m-851.93 84.563c-6.226 1.389-12.37 3.93-16.789 8.694-6.897 6.779-11.616 15.355-16.027 23.868-4.483 9.547-9.565 19.085-11.081 29.658-0.889 6.616-1.361 13.295-1.171 19.975 0.218 4.656-2.577 8.612-4.456 12.66-6.643 13.794-15.373 26.835-18.931 41.909-1.552 6.834-1.334 15.02 4.057 20.174 0.799 1.035 2.169-0.045 2.432-0.98 5.636-10.917 11.68-21.608 17.561-32.38 3.939-7.342 8.222-14.548 13.486-21.018 1.134-1.715 3.24-1.806 5.082-1.543 0.862 4.973-1.534 9.656-3.412 14.103-7.542 16.027-16.998 31.065-26.863 45.739-2.115 3.34-2.668 7.351-3.403 11.172-0.799 4.302 0.417 9.565 4.51 11.825 5.545 3.095 12.506 1.625 17.742-1.443 10.754-6.198 18.768-16.172 24.975-26.745 9.602-16.172 15.609-34.087 23.124-51.248 1.107-2.36 2.287-4.892 4.519-6.389 1.252-0.29 2.94-0.499 3.73 0.826 1.606 2.214 1.207 5.182 1.298 7.786-0.545 11.598-0.381 23.242 0.69 34.813 1.37 9.547 3.04 19.484 8.476 27.679 3.376 5.173 8.984 8.994 15.265 9.348 5.391 0.762 10.917-1.688 14.094-6.071 5.019-6.897 5.835-15.755 6.398-24.004 9e-3 -10.99 0.717-22.017-0.182-32.989-0.653-8.767-2.768-17.688-0.699-26.418 2.205-10.745 4.156-21.563 6.924-32.181 2.015 0.263 4.011 0.617 6.008 1.053-1.134 7.614-3.621 14.974-4.429 22.643 5.708-0.054 11.489-0.336 17.089 0.989 11.38 2.096 22.534 7.569 34.341 5.536 5.118-1.833 9.284-5.745 12.397-10.11 3.666-5.391 6.407-11.752 5.944-18.386 0.245-6.353-1.234-13.64-6.788-17.47-3.812-1.452-8.004-0.717-11.762 0.508-6.253 1.969-12.796 3.331-19.385 2.804-2.532-0.308-5.055 0.045-7.324 1.216-2.305-3.313-4.42-6.825-7.614-9.356-11.453-10.772-24.912-19.14-38.679-26.6-15.517-8.159-33.595-13.84-51.147-9.647m809.38 55.305c-9.692 4.202-17.933 10.954-26.3 17.261-12.805 9.801-24.548 20.855-37.036 31.037-12.642 10.6-25.329 21.191-37.145 32.716-3.639 3.657-7.36 7.324-10.146 11.707-2.024 3.104-2.033 6.97-1.625 10.545 6.752 0.536 13.468-0.744 20.229-0.662 9.828-0.871 19.739-1.497 29.413-3.612 19.966-4.347 38.769-12.687 57.564-20.501 13.903-6.017 27.616-12.796 39.713-22.017 11.262-8.267 21.127-18.214 30.883-28.151 4.438-4.492 7.287-10.573 7.687-16.889 0.327-5.708-2.214-11.635-6.988-14.901-5.118-3.494-11.226-5.227-17.27-6.28-16.907-2.287-33.705 2.922-48.979 9.747m-440.66 242.66c-5.336 8.168-6.371 18.06-9.039 27.235-2.532 8.912-7.224 17.089-12.832 24.412-6.325 6.997-13.241 13.486-20.646 19.339-11.879 9.229-24.186 18.042-37.49 25.12-4.011 2.169-6.87 5.817-10.182 8.848-6.498 6.516-12.497 13.513-18.895 20.129-6.226 6.307-12.959 12.097-19.022 18.559-1.452-0.59-2.877-1.207-4.256-1.897-5.1-2.877-11.28-3.421-16.971-2.469-16.063 3.748-28.124 19.63-27.961 36.029 0.064 5.572 2.605 10.672 4.783 15.682 1.506 3.648 5.245 5.472 8.395 7.496 0-16.517 9.429-33.297 24.766-40.122 9.057-3.939 18.777-6.897 28.714-7.042 0.064 2.087 0.145 4.22 0.054 6.344-8.458 0.327-16.735 2.595-24.512 5.835-14.983 5.863-24.358 22.879-22.089 38.67 0.644 5.255 4.02 9.511 6.797 13.831 2.931 4.538 7.142 8.023 11.317 11.38 5.972 4.737 13.713 6.679 21.218 7.006 11.489 0.436 22.752-2.487 33.696-5.654-1.57-1.779-3.285-3.403-4.864-5.137-9.52-10.945-12.134-26.808-8.286-40.594 2.187-7.659 5.69-15.373 12.07-20.438 6.389-5.164 13.577-9.592 21.49-11.97 5.518-1.824 11.29-0.045 16.571 1.724-0.608 1.942-1.125 3.93-1.634 5.917-4.392-0.735-8.866-2.986-13.331-1.461-5.981 1.86-11.453 5.091-16.499 8.749-3.666 2.659-6.997 5.953-8.957 10.101-5.309 10.246-6.716 22.761-2.55 33.66 2.686 7.197 7.905 13.395 14.539 17.279 4.719 2.995 10.527 2.713 15.873 3.322 7.378 0.753 14.693-0.844 21.781-2.741 4.293-1.697 7.433-5.3 10.908-8.195 6.289-6.58 12.097-14.167 13.831-23.323 1.398-4.973 0.272-10.073-0.663-15.001 2.459-0.726 5.1-1.352 7.496-0.018 5.037-6.117 9.992-12.379 16.027-17.552 3.294-2.695 4.801-6.825 6.861-10.409 4.401-8.603 9.175-17.034 13.241-25.801 3.167-10.654 6.244-21.372 8.667-32.226 3.031-14.021 2.378-28.469 1.788-42.699-0.245-18.831-5.445-37.272-12.896-54.451-2.614-6.162-6.171-11.843-9.266-17.751-6.335 6.435-13.005 12.724-18.042 20.284z" fill="#2B2A28" stroke="#2B2A28"/>
 <path d="m616.72 53.214c6.171 2.36 11.099 6.924 16.118 11.072 18.468 16.29 35.248 34.368 51.983 52.391 26.427 28.805 52.89 57.782 75.379 89.845 24.031 34.268 43.389 72.947 49.17 114.79 2.232 20.873 0.917 42.091-3.539 62.583-0.662 3.131-1.742 6.162-3.122 9.048-5.046-4.465-8.785-10.137-13.422-14.992-12.633-14.275-26.164-27.934-41.692-39.096-12.705-9.22-26.754-16.508-41.401-22.107-19.185-7.151-39.151-12.714-59.606-14.421-12.633-0.354-25.302-1.352-37.907-0.082-1.407 0.299-2.977-0.209-3.131-1.824-3.857-17.406-2.931-35.348-2.45-53.027 0.699-30.965 4.828-61.693 7.151-92.549 1.425-16.018 2.323-32.081 3.149-48.135 0.209-8.676 0.318-17.352 0.862-26.019 0.443-9.166 0.017-18.54 2.458-27.48z" fill="#3FA7DE" stroke="#3FA7DE"/>
 <path d="m563.34 121.41c14.729-17.633 29.64-35.13 45.158-52.065-1.806 17.533-1.207 35.212-2.541 52.782-1.125 23.695-4.247 47.237-5.854 70.896-1.044 11.299-1.987 22.606-2.741 33.932-1.053 7.687-0.563 15.455-0.862 23.178-0.154 9.683-0.535 19.367-0.218 29.05 0.399 7.496 1.561 14.929 2.822 22.325 0.399 2.586 1.343 5.037 2.441 7.405 12.288-0.055 24.621-1.516 36.9-0.218 11.653 0.808 23.478 1.307 34.722 4.764 17.379 5.209 35.375 9.429 51.166 18.722 6.698 4.12 13.232 8.513 19.839 12.778 11.507 7.224 21.173 16.934 30.584 26.645 13.223 13.831 24.712 29.177 36.818 43.97 4.637 5.336 7.687 11.762 11.217 17.833 6.589 11.834 13.205 23.65 19.802 35.484 3.612 6.307 6.725 12.887 9.465 19.63 1.243 3.204 2.886 6.325 3.367 9.774-20.138 0.445-39.967 4.265-59.851 7.124 0.281 2.069 0.572 4.138 0.844 6.226 20.528-2.596 40.92-6.852 61.693-7.033 3.113 7.941 5.037 16.372 8.948 23.986-0.336 0.318-1.007 0.971-1.343 1.298 0.427 0.744 0.844 1.488 1.289 2.26-22.062 4.084-44.078 8.449-66.077 12.914 0.662 1.942 0.1 4.656 1.715 6.062 23.296-4.293 46.465-9.357 69.798-13.431 0.844 1.661 1.788 3.276 2.822 4.846-4.329 3.031-9.393 4.792-13.794 7.696-3.104 9.121-5.109 18.604-7.859 27.852-9.447-1.679-18.749-4.111-28.151-5.971-3.267-0.454-6.58-0.309-9.838 0 0.082 2.069 0.118 4.156 0.091 6.244 12.315-0.699 24.022 4.102 36.056 6.008-2.614 10.691-5.717 21.263-8.676 31.872-4.22 15.437-11.208 29.93-18.704 44.006-7.741 14.62-18.314 27.453-28.651 40.267-20.129 26.1-41.274 51.584-65.396 74.117 1.389 1.561 2.841 3.095 4.311 4.61 19.657-17.969 37.045-38.225 53.707-58.944 3.367-4.519 8.295-7.414 12.587-10.945 16.735-12.932 33.479-25.855 50.295-38.688 12.95-9.974 26.028-19.82 38.198-30.756 11.861-9.774 23.65-19.639 35.148-29.848 3.149 5.391 5.463 11.271 9.23 16.308 5.926 8.14 12.197 16.19 20.056 22.579 5.363 4.819 11.235 9.03 17.07 13.259-2.695 3.14-6.616 5.073-8.821 8.64-10.527 17.297-21.227 34.495-31.518 51.938-8.268 13.549-15.428 27.734-22.679 41.846-4.211 8.032-7.551 16.653-13.431 23.677-18.895 23.45-37.962 46.765-57.065 70.043 21.536 32.181 42.989 64.425 64.625 96.542 7.65 11.689 16.009 22.933 23.006 35.049 4.819 7.923 10.237 15.582 16.962 22.016 13.041 10.155 29.994 15.864 46.565 13.622 3.24-0.572 6.788-0.036 9.729-1.815 4.547-2.605 9.32-4.946 13.214-8.522 4.138-3.812 8.839-6.915 13.286-10.337 10.346-7.786 20.465-15.854 30.738-23.732 6.471-4.846 12.832-10.055 20.401-13.132 15.864-6.815 32.489-12.079 49.56-14.802 5.981-0.717 12.342-1.67 18.169 0.408 6.244 3.158 10.609 9.003 14.448 14.693 7.777 11.943 9.602 26.536 9.847 40.485 0.336 25.91-2.632 51.72-6.226 77.339-1.488 9.965-2.169 20.22-6.044 29.64-2.024 5.654-5.835 10.364-9.384 15.119-10.373 13.114-21.726 25.429-33.66 37.145-12.987 11.943-24.131 25.774-33.796 40.512-1.588-21.799-3.258-43.597-5.291-65.36-0.871-11.226-2.287-22.425-2.36-33.696-0.245-19.684-0.018-39.368-0.154-59.052-2.16 9.012-3.031 18.314-5.128 27.335-3.775 6.561-3.884 14.339-4.338 21.699-0.082 6.08-1.452 12.025-2.414 18.014-0.399 1.479-0.327 3.394-1.833 4.274-12.56 9.511-24.775 19.466-37.263 29.068-30.72 23.995-52.4 57.02-80.27 83.919-1.969 1.706-5 1.316-6.897 3.149-2.26 1.969-4.12 4.329-6.117 6.543-7.859 9.356-16.762 17.724-25.32 26.418-13.068 13.259-25.302 27.335-38.67 40.312-26.2 23.369-53.381 45.73-77.956 70.859-5.091 5.481-10.573 10.582-15.655 16.063-6.634 7.324-7.741 17.488-10.573 26.554-2.559 8.05-4.447 16.526-8.939 23.786-4.274 6.897-11.308 11.19-17.488 16.154-9.193 7.523-18.495 14.938-28.351 21.581-8.567 5.699-17.08 11.879-27.062 14.865-7.868 2.949-16.517 3.358-24.666 1.407-6.725-1.597-14.176-3.893-18.114-10.037-4.647-7.024-9.302-14.393-10.809-22.824-3.548-17.461-2.196-35.575 1.08-52.963 4.683-21.336 8.721-43.044 17.642-63.127 8.159-18.16 16.589-36.201 24.567-54.433 5.581-13.041 11.371-26.019 16.009-39.432 3.276-9.765 5.763-19.956 5.654-30.32 9e-3 -11.653-3.058-22.979-5.518-34.268-3.939-16.771-6.498-33.805-9.819-50.694-3.993-21.427-8.041-42.862-13.086-64.071-4.374-18.622-9.838-36.954-14.62-55.477-6.289-24.095-11.761-48.398-18.586-72.357-7.333 2.196-14.593 4.837-21.327 8.522-14.747 9.084-28.378 19.866-41.483 31.164-12.506 10.763-26.146 20.301-37.526 32.317-23.214 27.68-46.402 55.404-69.317 83.338-3.086-1.407-5.953-3.267-9.166-4.356-10.382-2.269-20.782-5.427-31.536-4.901-8.458 0.063-16.59 2.632-24.431 5.572-1.443 0.617-2.623 1.697-3.893 2.595 2.096-9.674 5.881-18.849 8.903-28.242 4.901-15.736 12.651-30.357 19.031-45.503 8.331-19.013 17.207-37.789 26.046-56.566 6.979-15.564 15.401-30.42 23.523-45.403 9.075-18.386 21.563-34.894 35.657-49.714 4.973-5.627 10.418-10.899 14.611-17.161 1.352-2.586 4.719-1.915 7.124-2.387-0.064-2.142-0.345-4.256-0.663-6.353-33.987 4.483-68.264 0.635-102.3-1.225 5.899-12.106 12.152-24.049 18.223-36.074-1.806-1.08-3.685-2.024-5.572-2.904-6.924 12.805-13.241 25.937-19.902 38.878-14.902-0.699-29.721-2.677-44.559-4.256 15.346-16.635 31.5-32.508 47.981-48.017-1.398-1.57-2.832-3.086-4.302-4.565-18.06 16.326-34.903 33.914-51.711 51.502-12.606-1.425-25.075-3.911-37.481-6.525-5.817-1.398-11.789-2.369-17.316-4.737 14.067-10.6 28.169-21.154 42.272-31.718 11.362-9.084 24.403-15.682 36.755-23.287-0.989-1.906-2.096-3.748-3.322-5.49-8.122 4.719-16.118 9.647-24.195 14.448-5.881 3.303-10.99 7.741-16.435 11.689-14.067 10.527-28.079 21.136-42.2 31.573-5.581-1.162-10.809-3.703-16.245-5.409-10.328-3.648-20.646-7.306-30.883-11.199 2.496-12.252 4.755-24.594 5.609-37.09 0.336-7.777 1.271-15.682-0.499-23.351-2.695-12.469-8.05-24.131-11.725-36.31-7.841-25.51-16.462-50.812-22.897-76.74-1.125-12.27-2.196-24.567-2.623-36.891 0.345-8.812 1.425-17.552 2.251-26.318 1.035-11.226 2.523-22.479 5.699-33.324 3.267-9.928 6.952-19.711 10.446-29.558 4.438-13.359 13.277-24.558 21.118-36.038 7.877-11.58 16.907-22.307 26.345-32.644 4.12-4.991 9.112-9.229 12.878-14.52-4.683-7.823-9.783-15.609-17.025-21.327-10.799-9.72-23.95-16.344-37.399-21.599-15.582-6.226-31.727-10.999-48.126-14.575-15.101-3.485-30.447-5.808-45.449-9.729-25.964-6.08-51.184-14.82-76.786-22.189-2.605-0.835-5.409-1.162-7.832-2.478 20.828-2.959 41.791-4.701 62.692-6.979 14.166-1.543 28.387-2.922 42.654-2.895 40.857-0.726 82.104 1.053 121.99 10.554 19.657 4.928 38.443 12.769 56.847 21.154 8.14 3.848 16.399 7.496 24.322 11.807-5.772 4.12-12.079 7.415-18.069 11.199-0.363 2.06 1.842 3.848 2.677 5.708 14.911-8.032 28.396-18.523 43.77-25.701 17.207-8.431 34.613-16.444 52.183-24.086 7.786-3.34 15.582-6.825 23.868-8.785 2.459-0.699 5.128-1.143 7.215-2.75 2.124-1.679 2.55-4.556 2.668-7.088 0.109-6.734 1.334-13.368 1.987-20.056 2.287-18.786 4.238-37.644 8.05-56.203 4.084-20.256 9.438-40.548 19.348-58.808 7.905-14.52 16.835-28.442 25.674-42.399 5.862-9.62 13.521-17.942 20.591-26.663m64.652 266.36c-21.953 2.559-42.427 14.439-55.976 31.827-17.561 22.135-24.285 51.311-22.67 79.145 1.062 18.459 5 37.381 15.246 53.063 7.523 11.68 18.976 20.837 32.199 25.184 18.949 6.489 39.831 4.111 58.426-2.396 25.846-9.184 49.034-26.2 64.997-48.562 11.017-15.519 18.268-34.304 17.66-53.535-0.79-17.288-8.159-33.724-18.368-47.473-7.07-9.166-15.21-18.014-25.746-23.187-20.02-10.609-43.008-16.943-65.768-14.066m-247.87 126.65c-5.69 0.427-11.335 1.479-16.798 3.104-21.717 6.434-39.632 22.888-49.769 42.926-13.086 25.456-14.974 56.43-5.273 83.329 4.955 13.386 13.604 25.393 24.884 34.15 14.756 11.58 33.088 17.769 51.511 20.247 8.24 1.035 16.635 1.942 24.912 0.726 10.21-1.434 20.12-4.501 29.74-8.15 12.397-4.774 24.449-10.609 35.448-18.087 12.315-8.794 23.478-20.183 28.95-34.531 4.783-12.197 4.465-26.019 0.218-38.316-5.191-15.319-15.056-28.587-26.282-40.031-13.495-13.54-29.023-25.12-46.057-33.814-15.846-7.987-33.642-12.914-51.484-11.553m193.32 121.67c-7.324 4.175-15.137 7.596-22.144 12.27-1.334 5.908-0.372 12.324-0.908 18.432 3.703 1.398 7.514 2.496 11.117 4.193 3.612-0.299 7.197-1.016 10.79-1.561-1.116 8.948-6.58 16.444-12.206 23.169-9.847 11.181-23.995 18.014-38.615 20.201-9.556 0.935-18.904-1.643-27.934-4.411-0.726 1.969-1.416 3.957-1.997 5.981 10.046 3.666 20.71 5.481 31.409 5.055 6.416 9.456 14.511 17.633 22.634 25.619 11.607 10.754 23.732 21.554 38.57 27.634 13.967 5.554 29.676 8.939 44.478 4.801 10.618-2.959 20.029-10.128 25.737-19.548 7.995-13.468 9.012-29.685 8.603-44.977-0.109-11.199-2.468-22.189-4.991-33.043-1.96-7.414-3.93-15.128-8.676-21.327 6.362-5.246 12.324-11.154 16.753-18.16-1.679-1.189-3.349-2.387-5.019-3.557-2.822 3.439-5.427 7.06-8.576 10.219-9.892 10.182-23.169 17.751-37.581 18.459-9.084 0.726-18.096-1.661-26.264-5.518 1.67-3.839 3.784-7.451 5.627-11.199 1.307-2.45 0.254-5.291 0.082-7.877-0.363-1.497-0.045-3.24-0.935-4.529-3.721-1.661-7.478-3.312-11.353-4.556-3.092 0.682-5.724 2.906-8.601 4.23m174.29 244.97c-8.812 0.862-17.561 3.594-24.712 8.939-7.424 4.937-11.925 12.905-15.664 20.764-4.129 7.496-5.373 16.136-6.362 24.521-9e-3 9.112 2.732 17.951 4.946 26.718 1.824 7.714 2.087 15.682 3.757 23.423 0.971 7.523 2.06 15.083 4.147 22.398 3.757 12.542 8.231 24.957 10.092 37.971 3.612 18.268 5.372 36.909 10.373 54.896 2.478 9.093 2.804 18.577 4.029 27.888 0.944 6.561 0.399 13.268 1.915 19.775 1.479 13.785 6.398 27.135 13.976 38.733 5.309 7.877 11.335 15.246 17.27 22.661 4.311 5.726 10.01 10.4 16.417 13.604 7.26 2.822 15.7 3.675 23.051 0.662 4.855-1.924 9.565-4.238 14.112-6.806 16.553-9.638 32.281-20.664 47.2-32.671 5.545-4.765 10.536-10.146 14.929-15.981 5.472-6.398 10.636-13.041 15.491-19.92 4.392-5.563 8.74-11.398 10.827-18.277 3.076-11.861 0.971-24.213 2.723-36.219 0.672-9.719 0.78-19.648-1.57-29.168-1.325-8.794-3.812-17.379-7.197-25.601-3.077-8.295-6.462-16.599-11.562-23.877-3.176-4.964-9.484-5.699-14.23-8.494-5.182-2.033-8.431-6.725-12.769-9.946-2.224-1.697-4.011-3.839-5.736-5.999-11.271-12.415-21.536-25.692-31.79-38.96-5.019-6.534-9.375-13.531-14.493-19.975-7.541-11.743-14.711-23.795-23.505-34.649-5.854-5.645-12.424-11.099-20.456-13.195-8.129-2.371-16.705-4.313-25.209-3.215z" fill="#E6EFEE" stroke="#E6EFEE"/>
 <path d="m47.086 346.58c4.347-0.635 8.576 1.171 12.76 2.115 26.318 7.315 52.219 15.991 78.238 24.285 6.625 1.978 13.513 2.831 20.292 4.165 23.523 4.265 47.164 8.64 69.789 16.553 12.624 4.665 25.402 9.375 36.791 16.671 9.72 6.135 17.951 14.502 24.249 24.086-2.096 3.276-4.982 5.908-7.514 8.83-11.326 12.678-22.37 25.674-32.008 39.695-7.405 11.09-14.911 22.289-19.639 34.84-11.616 26.908-16.163 56.221-17.742 85.298-0.154 5.373 0.254 10.754-0.118 16.118-0.399 3.712-0.572 7.442-0.554 11.181-2.087-0.835-4.175-1.679-6.144-2.741-4.529-3.576-8.077-8.213-12.252-12.161-17.669-18.386-36.029-36.256-51.221-56.811-21.944-28.941-39.804-60.777-55.168-93.629-11.889-25.556-22.171-51.838-31.282-78.51-3.648-10.963-9.447-21.354-10.809-32.97-0.164-2.404-0.245-5.862 2.332-7.015z" fill="#3FA7DE" stroke="#3FA7DE"/>
 <path d="m627.99 387.76c22.761-2.877 45.748 3.458 65.768 14.067 10.536 5.173 18.677 14.021 25.746 23.187 10.21 13.749 17.579 30.184 18.368 47.473 0.608 19.23-6.643 38.016-17.66 53.535-15.963 22.361-39.151 39.377-64.997 48.562-18.595 6.507-39.477 8.885-58.426 2.396-13.223-4.347-24.676-13.504-32.199-25.184-10.246-15.682-14.185-34.604-15.246-53.063-1.615-27.834 5.109-57.011 22.67-79.145 13.549-17.389 34.023-29.269 55.976-31.828m0.943 6.352c-15.628 1.87-30.62 8.649-42.272 19.221-20.401 18.241-30.221 45.884-31.028 72.765-0.436 19.684 2.169 40.103 11.634 57.655 7.07 13.223 19.303 23.75 33.805 27.888 19.085 5.599 39.677 2.069 57.773-5.309 24.73-10.255 46.765-27.897 60.659-50.939 8.794-14.802 13.958-32.444 11.253-49.705-2.768-16.526-11.235-31.709-22.352-44.087-4.583-4.828-9.347-9.692-15.292-12.814-19.411-10.754-41.864-17.433-64.18-14.675z" fill="#2B2A28" stroke="#2B2A28"/>
 <path d="m628.94 394.12c22.316-2.759 44.768 3.921 64.18 14.675 5.944 3.122 10.709 7.986 15.292 12.814 11.117 12.379 19.584 27.561 22.352 44.087 2.704 17.261-2.459 34.903-11.253 49.705-13.894 23.042-35.929 40.684-60.659 50.939-18.096 7.378-38.688 10.908-57.773 5.309-14.502-4.138-26.736-14.666-33.805-27.888-9.465-17.552-12.07-37.971-11.634-57.655 0.808-26.881 10.627-54.524 31.028-72.765 11.653-10.572 26.645-17.351 42.272-19.221m2.705 7.252c-16.889 1.842-33.125 9.792-44.605 22.38-9.883 10.672-16.381 24.449-18.141 38.896-1.96 14.303 0.862 29.141 7.641 41.855 7.242 13.931 19.475 25.138 33.851 31.4 15.936 6.997 34.495 7.886 50.948 2.142 15.255-5.055 28.605-15.618 37.1-29.249 7.115-11.344 11.081-24.73 10.809-38.143-0.054-19.748-9.048-39.287-23.977-52.201-14.494-12.779-34.414-19.068-53.626-17.08z" fill="#FEFEFE" stroke="#FEFEFE"/>
 <path d="m631.64 401.37c19.212-1.987 39.132 4.302 53.626 17.08 14.929 12.914 23.922 32.453 23.977 52.201 0.272 13.413-3.694 26.799-10.809 38.143-8.494 13.631-21.844 24.195-37.1 29.249-16.453 5.745-35.012 4.855-50.948-2.142-14.375-6.262-26.609-17.47-33.851-31.4-6.779-12.714-9.602-27.552-7.641-41.855 1.761-14.448 8.258-28.224 18.141-38.896 11.48-12.588 27.716-20.538 44.605-22.38m-9.112 9.928c-10.908 1.606-21.372 6.398-29.522 13.858-11.88 10.754-18.595 26.79-18.459 42.772-0.163 19.966 10.291 39.613 26.863 50.731 14.33 9.974 33.297 12.996 49.896 7.387 14.039-4.565 26.001-15.083 32.308-28.433 9.039-18.16 7.451-40.784-3.231-57.909-11.625-19.585-35.121-31.628-57.855-28.406z" fill="#40A6DD" stroke="#40A6DD"/>
 <path d="m622.53 411.3c22.734-3.222 46.229 8.821 57.855 28.406 10.682 17.125 12.27 39.75 3.231 57.909-6.307 13.35-18.268 23.868-32.308 28.433-16.599 5.609-35.566 2.586-49.896-7.387-16.571-11.117-27.026-30.765-26.863-50.731-0.136-15.981 6.58-32.017 18.459-42.772 8.15-7.46 18.614-12.252 29.522-13.858m-35.384 36.119c-3.267 1.497-5.191 5.182-4.937 8.712 0.154 5.064 4.892 9.556 10.01 9.102 4.982-0.136 8.894-5.173 8.168-10.037-0.409-6.134-7.633-10.762-13.241-7.777z" fill="#2B2A28" stroke="#2B2A28"/>
 <path d="m587.14 447.42c5.608-2.986 12.832 1.643 13.241 7.777 0.726 4.864-3.185 9.901-8.168 10.037-5.118 0.454-9.856-4.038-10.01-9.102-0.254-3.53 1.67-7.214 4.937-8.712z" fill="#FEFEFE" stroke="#FEFEFE"/>
 <path d="m884.38 485.11c5.246-5.436 12.27-9.502 19.975-9.747 9.275-0.908 18.259 3.24 25.148 9.184 10.872 9.338 19.131 21.708 23.723 35.275 1.588 4.247 1.325 9.012 3.158 13.159 2.432 3.567 6.852 0.79 9.756-0.581 15.001-7.823 32.163-12.46 49.133-10.155 7.65 1.116 14.838 5.091 19.612 11.199 2.804 3.784 3.285 8.739 3.412 13.304-1.162 4.755-3.303 9.22-4.81 13.885-1.18 3.875-4.129 6.734-6.679 9.738-5.345 6.126-9.847 13.114-16.363 18.123-11.68 9.211-26.391 16.09-41.583 14.448-8.912-0.817-16.544-7.605-19.212-16-1.225-4.32-0.581-9.102 1.824-12.896 4.311-7.369 12.143-11.598 19.775-14.756 2.078-0.944 4.356-0.427 6.452 0.218-0.027 1.579-0.036 3.167-9e-3 4.764 1.878 0.345 3.757 0.69 5.654 1.044 1.497-5.418 1.67-11.834 6.407-15.655 4.855-3.93 9.148-8.54 14.275-12.115-9e-3 -2.006-0.027-4.011-0.036-5.999-3.358 0.499-6.425 2.06-8.721 4.565-5.282 5.627-12.714 9.402-15.882 16.798-3.022-0.427-6.207-1.289-9.148-0.064-11.19 4.147-22.77 11.244-26.708 23.187-4.138 13.903 6.498 28.886 19.984 32.399 3.594 0.436 2.868 4.783 3.539 7.387 0.726 9.366 7.233 17.896 16.045 21.1 1.234 0.572 2.686 0.871 3.73 1.842 1.497 3.93 2.16 8.222 4.429 11.852 2.224 4.22 6.208 7.052 10.182 9.493-7.396 9e-3 -14.974 0.263-22.071-2.16-6.099-1.634-11.181-5.527-15.991-9.438-2.487-2.06-3.376-5.3-4.42-8.204 2.859 0.753 5.581 1.942 8.204 3.322 1.352-1.688 2.36-3.612 2.677-5.772-8.349-4.61-17.887-6.325-26.563-10.128-2.686-2.205-4.256-5.445-6.189-8.277-5.518-8.758-9.42-18.668-10.328-29.032-0.454-4.855 0.726-9.647 0.653-14.493-0.045-9.42-2.323-19.122-8.095-26.727-8.041-10.809-20.138-17.361-29.975-26.282-5.627-5.291-10.555-11.988-11.689-19.802-0.998-6.677 2.06-13.338 6.725-18.003z" fill="#3FA7DE" stroke="#3FA7DE"/>
 <path d="m380.12 514.42c17.842-1.361 35.638 3.567 51.484 11.553 17.034 8.694 32.562 20.274 46.057 33.814 11.226 11.444 21.091 24.712 26.282 40.031 4.247 12.297 4.565 26.118-0.218 38.316-5.472 14.348-16.635 25.737-28.95 34.531-10.999 7.478-23.051 13.313-35.448 18.087-9.62 3.648-19.53 6.716-29.74 8.15-8.277 1.216-16.671 0.309-24.912-0.726-18.423-2.478-36.755-8.667-51.511-20.247-11.281-8.758-19.929-20.764-24.884-34.15-9.701-26.899-7.814-57.873 5.273-83.329 10.137-20.038 28.052-36.492 49.769-42.926 5.463-1.625 11.108-2.678 16.798-3.104m-3.485 6.815c-18.314 2.223-35.275 12.143-46.937 26.327-17.669 21.182-24.195 50.377-19.73 77.348 2.45 16.081 9.638 31.654 21.454 42.989 13.322 12.996 31.337 20.102 49.451 23.214 10.709 1.688 21.753 2.995 32.462 0.672 15.691-3.213 30.701-9.248 44.868-16.626 13.985-7.26 27.017-17.315 35.375-30.874 6.707-10.745 8.876-24.122 5.953-36.437-3.703-16.027-13.477-29.903-24.63-41.673-13.413-13.912-29.059-25.746-46.293-34.513-15.926-8.067-34.068-12.786-51.973-10.427z" fill="#2B2A28" stroke="#2B2A28"/>
 <path d="m376.64 521.23c17.905-2.359 36.047 2.36 51.974 10.427 17.234 8.767 32.88 20.601 46.293 34.513 11.153 11.771 20.927 25.647 24.63 41.673 2.922 12.315 0.753 25.692-5.953 36.437-8.358 13.558-21.39 23.614-35.375 30.874-14.166 7.378-29.177 13.413-44.868 16.626-10.709 2.323-21.753 1.016-32.462-0.672-18.114-3.113-36.129-10.219-49.451-23.214-11.816-11.335-19.004-26.908-21.454-42.989-4.465-26.972 2.06-56.167 19.73-77.348 11.66-14.184 28.622-24.103 46.936-26.327m10.863 5.264c-16.844 1.997-32.889 10.182-44.251 22.797-8.34 9.357-14.248 20.891-16.744 33.188-3.812 17.633-0.154 36.628 9.52 51.811 13.468 21.599 39.414 34.495 64.752 32.335 18.886-1.334 36.982-10.736 49.006-25.338 15.337-18.214 20.437-44.559 12.633-67.111-5.536-16.962-17.878-31.627-33.724-39.867-12.523-6.744-27.071-9.367-41.192-7.815z" fill="#FEFEFE" stroke="#FEFEFE"/>
 <path d="m387.5 526.5c14.121-1.552 28.669 1.071 41.193 7.814 15.845 8.24 28.188 22.906 33.724 39.867 7.805 22.552 2.704 48.897-12.633 67.111-12.025 14.602-30.121 24.004-49.006 25.338-25.338 2.16-51.284-10.736-64.752-32.335-9.674-15.183-13.332-34.177-9.52-51.811 2.496-12.297 8.404-23.832 16.744-33.188 11.361-12.614 27.406-20.8 44.25-22.796m0.853 6.325c-10.6 1.752-20.682 6.625-28.478 14.03-11.444 10.618-18.042 26.191-17.933 41.764-0.327 15.537 5.899 31.001 16.426 42.354 8.739 9.574 20.728 16.045 33.46 18.323 13.177 2.36 27.135-0.426 38.497-7.469 10.672-6.561 18.958-16.925 23.042-28.778 5.127-14.103 4.529-30.112-1.389-43.879-4.229-10.319-11.562-19.194-20.428-25.855-12.278-8.947-28.168-13.076-43.197-10.49z" fill="#41A6DD" stroke="#41A6DD"/>
 <path d="m388.35 532.82c15.029-2.586 30.919 1.543 43.198 10.491 8.867 6.661 16.199 15.537 20.428 25.855 5.917 13.767 6.516 29.776 1.389 43.879-4.084 11.852-12.37 22.216-23.042 28.778-11.362 7.042-25.32 9.828-38.497 7.469-12.733-2.278-24.721-8.748-33.46-18.323-10.527-11.353-16.753-26.817-16.426-42.354-0.109-15.573 6.489-31.146 17.933-41.764 7.795-7.406 17.877-12.279 28.477-14.031m-34.513 34.305c-2.469 1.007-4.356 3.231-5.046 5.799-1.824 5.799 3.113 12.578 9.275 12.252 5.191 0.082 9.393-5.118 8.567-10.182-0.49-5.9-7.251-10.419-12.796-7.869z" fill="#2B2A28" stroke="#2B2A28"/>
 <path d="m1044.1 550.92c5.191 0.526 9.946 3.285 13.44 7.097 3.067 4.057 3.394 9.357 3.984 14.221 0.163 2.078 0.744 4.283-0.145 6.289-5.046 11.979-11.643 23.469-20.809 32.798-7.233 7.551-15.927 13.622-25.293 18.241-6.779 3.322-14.557 3.739-21.962 3.249-5.699-0.454-11.544-2.595-15.319-7.042-3.821-4.238-4.819-10.173-5.064-15.682 7.324-0.962 14.802-1.733 21.635-4.783 7.569-3.149 14.675-7.433 20.991-12.651 6.825-5.627 11.716-13.096 17.47-19.72 2.033-2.478 4.51-4.737 5.681-7.805 1.834-4.719 3.231-9.61 5.391-14.212z" fill="#3FA7DE" stroke="#3FA7DE"/>
 <path d="m353.84 567.13c5.545-2.55 12.306 1.969 12.796 7.868 0.826 5.064-3.376 10.264-8.567 10.182-6.162 0.327-11.099-6.453-9.275-12.252 0.69-2.567 2.577-4.791 5.046-5.798z" fill="#FEFEFE" stroke="#FEFEFE"/>
 <path d="m1066.1 583.84c4.547 3.24 7.215 8.531 9.03 13.695 2.332 6.933 0.063 14.366-3.421 20.483-3.322 5.854-7.605 11.099-11.898 16.263-5.572 6.707-13.059 11.435-20.492 15.8-7.369 4.365-15.682 7.151-24.176 8.122-4.347-0.653-8.34-2.768-12.197-4.774-5.109-2.704-8.022-8.222-8.848-13.776 7.723-0.191 15.7-0.463 22.833-3.793 15.664-7.46 29.64-18.904 39.024-33.606 4.019-5.772 6.987-12.152 10.145-18.414z" fill="#40A6DD" stroke="#40A6DD"/>
 <path d="m212.18 619.24c1.334 5.472 1.261 11.163 1.434 16.762-3.058-2.414-5.854-5.155-8.131-8.322 1.969 1.062 4.057 1.906 6.144 2.741-0.019-3.74 0.153-7.469 0.553-11.181z" fill="#52A1CD" stroke="#52A1CD"/>
 <path d="m573.44 636.09c2.877-1.325 5.509-3.548 8.603-4.229 3.875 1.243 7.632 2.895 11.353 4.556 0.889 1.289 0.572 3.031 0.935 4.529 0.172 2.586 1.225 5.427-0.082 7.877-1.842 3.748-3.957 7.36-5.627 11.199 8.168 3.857 17.179 6.244 26.264 5.518 14.411-0.708 27.689-8.277 37.581-18.459 3.149-3.158 5.754-6.779 8.576-10.219 1.67 1.171 3.34 2.369 5.019 3.557-4.429 7.006-10.391 12.914-16.753 18.16 4.746 6.198 6.716 13.912 8.676 21.327 2.523 10.854 4.883 21.844 4.991 33.043 0.408 15.292-0.608 31.509-8.603 44.977-5.708 9.42-15.119 16.589-25.737 19.548-14.802 4.138-30.511 0.753-44.478-4.801-14.838-6.081-26.963-16.88-38.57-27.634-8.122-7.986-16.217-16.163-22.634-25.619-10.7 0.427-21.363-1.389-31.409-5.055 0.581-2.024 1.271-4.011 1.997-5.981 9.03 2.768 18.377 5.345 27.934 4.411 14.62-2.187 28.768-9.021 38.615-20.201 5.627-6.725 11.09-14.221 12.206-23.169-3.594 0.544-7.178 1.261-10.79 1.561-3.603-1.697-7.414-2.795-11.117-4.193 0.535-6.108-0.427-12.524 0.908-18.432 7.005-4.675 14.819-8.096 22.142-12.271m59.616 32.381c-9.211 3.267-19.167 4.202-28.859 3.149-7.042-0.898-13.64-3.685-20.056-6.58-2.677 1.761-2.949 5.082-3.939 7.85-3.349 9.611-8.694 18.568-15.791 25.873-9.375 9.729-21.944 15.791-34.94 18.985 1.534 2.841 3.975 4.991 6.153 7.342 4.646 4.71 9.048 9.683 13.976 14.13 7.805 7.351 15.337 15.183 24.494 20.882 6.979 4.465 14.602 7.959 22.652 10.001 7.778 1.978 15.927 3.476 23.95 2.096 8.122-1.434 16.227-4.529 22.271-10.3 4.937-4.583 8.249-10.654 10.237-17.025 3.494-10.872 3.685-22.452 3.231-33.751-0.082-9.039-2.105-17.896-3.975-26.681-1.815-7.287-3.539-14.811-7.587-21.236-3.949 1.735-7.779 3.758-11.817 5.265z" fill="#2B2A28" stroke="#2B2A28"/>
 <path d="m633.06 668.47c4.038-1.506 7.868-3.53 11.816-5.264 4.047 6.425 5.772 13.949 7.587 21.236 1.87 8.785 3.893 17.642 3.975 26.681 0.454 11.299 0.263 22.879-3.231 33.751-1.987 6.371-5.3 12.442-10.237 17.025-6.044 5.772-14.148 8.866-22.271 10.3-8.023 1.379-16.172-0.118-23.95-2.096-8.05-2.042-15.673-5.536-22.652-10.001-9.157-5.699-16.689-13.531-24.494-20.882-4.928-4.447-9.329-9.42-13.976-14.13-2.178-2.35-4.619-4.501-6.153-7.342 12.996-3.195 25.565-9.257 34.94-18.985 7.097-7.306 12.442-16.263 15.791-25.873 0.989-2.768 1.261-6.089 3.939-7.85 6.416 2.895 13.014 5.681 20.056 6.58 9.693 1.052 19.648 0.117 28.86-3.15z" fill="#EC665A" stroke="#EC665A"/>
 <path d="m1173.6 845.99c4.819-1.869 9.284-5.935 14.738-5.164 0.817 7.805-5.273 13.713-10.899 18.096-12.006 8.921-26.064 14.502-39.876 19.956 2.16-5.436 3.712-11.172 3.267-17.07 0.218-3.803-1.379-7.596-0.826-11.308 3.385-2.024 7.523-1.143 11.271-1.162 7.559 0.508 15.464 0.254 22.325-3.348z" fill="#40A6DD" stroke="#40A6DD"/>
 <path d="m1089 847.65c13.377-0.889 26.754 0.29 40.094 1.216 1.207 0.281 3.43-0.281 3.666 1.497 1.806 7.433 2.786 15.582 0.064 22.924-3.131 7.387-11.317 10.019-18.205 12.633-14.756 6.053-30.656 11.544-41.801 23.505-10.682 12.124-17.252 27.099-25.401 40.902-12.342 19.566-21.98 41.174-38.043 58.127-5.028 5.264-11.707 8.857-18.84 10.282-10.736 2.178-22.007 0.209-31.945-4.165-6.289-2.605-10.827-7.886-15.446-12.669-4.565-5.155-9.184-10.4-12.551-16.435-1.153-1.661-0.926-3.948 0.79-5.118 5.073-4.401 11.426-6.915 17.406-9.838 14.684-7.197 28.95-15.782 40.575-27.435 9.402-9.357 16.88-20.428 23.469-31.89 8.086-14.457 16.535-28.923 27.743-41.229 7.877-8.631 17.733-15.727 29.041-19.031 6.279-1.932 12.832-2.858 19.384-3.276z" fill="#E6EFEE" stroke="#E6EFEE"/>
 <path d="m747.73 881.06c8.503-1.098 17.08 0.844 25.211 3.213 8.032 2.096 14.602 7.551 20.456 13.195 8.794 10.854 15.963 22.906 23.505 34.649 5.118 6.443 9.475 13.44 14.493 19.975 10.255 13.268 20.519 26.545 31.79 38.96 1.724 2.16 3.512 4.302 5.736 5.999 4.338 3.222 7.587 7.914 12.769 9.946 4.746 2.795 11.054 3.53 14.23 8.494 5.1 7.278 8.485 15.582 11.562 23.877 3.385 8.222 5.872 16.807 7.197 25.601 2.351 9.52 2.242 19.448 1.57 29.168-1.752 12.007 0.354 24.358-2.723 36.219-2.087 6.879-6.434 12.714-10.827 18.277-4.855 6.879-10.019 13.522-15.491 19.92-4.393 5.835-9.384 11.217-14.929 15.981-14.92 12.006-30.647 23.033-47.2 32.671-4.547 2.568-9.257 4.882-14.112 6.806-7.351 3.013-15.791 2.16-23.051-0.662-6.407-3.204-12.106-7.877-16.417-13.604-5.935-7.415-11.961-14.784-17.27-22.661-7.578-11.598-12.497-24.948-13.976-38.733-1.516-6.507-0.971-13.214-1.915-19.775-1.225-9.311-1.552-18.795-4.029-27.888-5-17.987-6.761-36.628-10.373-54.896-1.86-13.014-6.335-25.429-10.092-37.971-2.087-7.315-3.176-14.874-4.147-22.398-1.67-7.741-1.933-15.709-3.757-23.423-2.214-8.767-4.955-17.606-4.946-26.718 0.989-8.385 2.232-17.025 6.362-24.521 3.739-7.859 8.24-15.827 15.664-20.764 7.15-5.343 15.898-8.075 24.71-8.937z" fill="#D1E5EC" stroke="#D1E5EC"/>
 <path d="m1257.7 1021.8c5.781-3.721 12.787-4.991 19.575-4.701 6.407 1.352 11.163 6.67 14.103 12.261 9.284 14.048 8.258 33.288-0.581 47.327-6.026 10.981-17.388 17.297-27.97 23.16 0.808 1.942 1.788 3.812 2.813 5.663 7.015-3.376 13.54-7.741 19.684-12.515 5.509-4.256 9.52-10.101 12.769-16.19 4.547-8.567 6.834-18.386 6.144-28.088-0.29-5.354-1.797-10.518-3.34-15.6 8.022-1.86 16.399-0.762 24.231 1.47 6.062 2.496 10.6 7.532 14.938 12.288 5.545 6.707 11.308 14.121 12.106 23.124 0.908 9.184 0.826 18.622-1.443 27.616-1.906 4.665-6.053 7.886-9.674 11.199-6.38 5.5-13.223 10.446-20.301 14.983-4.765 2.078-10.046 2.596-14.92 4.356-1.08 1.733 0.69 4.084 0.771 6.071 4.275-0.526 8.34-2.051 12.533-3.013 4.928-0.926 8.603-4.547 12.696-7.142 5.109-3.449 9.847-7.396 14.593-11.326 4.401 4.284 5.273 10.899 4.556 16.744-0.853 4.529-3.576 8.413-6.053 12.206-3.875 5.381-8.032 10.772-13.459 14.684-11.29 6.489-23.586 11.598-36.591 13.241-0.953-7.941-5.817-15.609-13.286-18.849-6.425-3.975-14.012-5.046-21.381-5.717-10.119-0.799-20.147 1.361-29.948 3.576-8.63 3.231-17.279 6.58-25.456 10.854-12.106 7.977-23.441 17.052-34.867 25.964-6.915 5.436-13.404 11.39-19.902 17.316-13.967 12.333-28.587 23.968-41.565 37.372-3.694 3.893-7.442 7.841-10.164 12.506-1.979 3.194-1.942 7.07-2.305 10.7-3.503-0.762-7.088-1.388-10.337-2.904-4.946-4.12-9.311-9.493-10.473-15.982-2.287-7.968 0.717-16.208 4.311-23.278 3.585-5.182 7.551-10.101 10.954-15.41 11.217-16.299 24.948-30.647 38.67-44.832 4.574-4.792 9.229-9.547 13.268-14.811 18.895-23.205 46.247-37.907 64.053-62.102 3.113-4.102 5.908-8.422 8.903-12.596-0.98 5.309-1.752 10.663-2.278 16.045 2.078 0.182 4.165 0.408 6.271 0.626 1.552-9.974 2.523-20.083 4.746-29.93 4.619-7.351 9.638-14.52 15.346-21.082 5.382-5.855 11.036-11.717 18.26-15.284z" fill="#E6EFEE" stroke="#E6EFEE"/>
 <path d="m405.78 1106.4c17.551-4.193 35.629 1.488 51.148 9.647 13.767 7.46 27.226 15.827 38.679 26.6 3.194 2.532 5.309 6.044 7.614 9.356 2.269-1.171 4.792-1.525 7.324-1.216 6.589 0.526 13.132-0.835 19.385-2.804 3.757-1.225 7.95-1.96 11.762-0.508 5.554 3.83 7.033 11.117 6.788 17.47 0.463 6.634-2.278 12.996-5.944 18.386-3.113 4.365-7.278 8.277-12.397 10.11-11.807 2.033-22.96-3.44-34.341-5.536-5.599-1.325-11.38-1.044-17.089-0.989 0.808-7.669 3.294-15.029 4.429-22.643-1.997-0.436-3.993-0.79-6.008-1.053-2.768 10.618-4.719 21.436-6.924 32.181-2.069 8.73 0.045 17.651 0.699 26.418 0.898 10.972 0.191 21.998 0.182 32.989-0.563 8.249-1.379 17.107-6.398 24.004-3.176 4.383-8.703 6.834-14.094 6.071-6.28-0.354-11.889-4.175-15.265-9.348-5.436-8.195-7.106-18.132-8.476-27.679-1.071-11.571-1.234-23.214-0.69-34.813-0.091-2.605 0.309-5.572-1.298-7.786-0.79-1.325-2.478-1.116-3.73-0.826-2.232 1.497-3.412 4.029-4.519 6.389-7.514 17.161-13.522 35.076-23.124 51.248-6.207 10.573-14.221 20.546-24.975 26.745-5.236 3.067-12.197 4.538-17.742 1.443-4.093-2.26-5.309-7.523-4.51-11.825 0.735-3.821 1.289-7.832 3.403-11.172 9.865-14.675 19.321-29.712 26.863-45.739 1.879-4.447 4.274-9.13 3.412-14.103-1.842-0.263-3.948-0.172-5.082 1.543-5.264 6.471-9.547 13.676-13.486 21.018-5.881 10.772-11.925 21.463-17.561 32.38-0.263 0.935-1.634 2.015-2.432 0.98-5.391-5.155-5.608-13.341-4.057-20.174 3.557-15.074 12.288-28.115 18.931-41.909 1.879-4.047 4.674-8.004 4.456-12.66-0.191-6.679 0.281-13.359 1.171-19.975 1.516-10.573 6.598-20.111 11.081-29.658 4.411-8.513 9.13-17.089 16.027-23.868 4.419-4.764 10.563-7.305 16.788-8.694z" fill="#3FA7DE" stroke="#3FA7DE"/>
 <path d="m1215.2 1161.7c15.274-6.825 32.072-12.034 48.979-9.747 6.044 1.053 12.152 2.786 17.27 6.28 4.774 3.267 7.315 9.193 6.988 14.901-0.399 6.316-3.249 12.397-7.687 16.889-9.756 9.937-19.621 19.884-30.883 28.151-12.097 9.22-25.81 16-39.713 22.017-18.795 7.814-37.599 16.154-57.564 20.501-9.674 2.115-19.584 2.741-29.413 3.612-6.761-0.082-13.477 1.198-20.229 0.662-0.408-3.576-0.399-7.442 1.625-10.545 2.786-4.383 6.507-8.05 10.146-11.707 11.816-11.526 24.503-22.116 37.145-32.716 12.488-10.182 24.231-21.236 37.036-31.037 8.368-6.308 16.608-13.06 26.3-17.261z" fill="#3FA7DE" stroke="#3FA7DE"/>
 <path d="m774.49 1404.3c5.037-7.56 11.707-13.849 18.042-20.283 3.095 5.908 6.652 11.589 9.266 17.751 7.451 17.179 12.651 35.62 12.896 54.451 0.59 14.23 1.243 28.678-1.788 42.699-2.423 10.854-5.5 21.572-8.667 32.226-4.066 8.767-8.839 17.198-13.241 25.801-2.06 3.585-3.567 7.714-6.861 10.409-6.035 5.173-10.99 11.435-16.027 17.552-2.396-1.334-5.037-0.708-7.496 0.018 0.935 4.928 2.06 10.028 0.663 15.001-1.733 9.157-7.542 16.744-13.831 23.323-3.476 2.895-6.616 6.498-10.908 8.195-7.088 1.897-14.402 3.494-21.781 2.741-5.345-0.608-11.153-0.327-15.873-3.322-6.634-3.884-11.852-10.083-14.539-17.279-4.166-10.899-2.759-23.414 2.55-33.66 1.96-4.147 5.291-7.442 8.957-10.101 5.046-3.657 10.518-6.888 16.499-8.749 4.465-1.525 8.939 0.726 13.331 1.461 0.508-1.988 1.026-3.975 1.634-5.917-5.282-1.77-11.054-3.548-16.571-1.724-7.914 2.378-15.101 6.806-21.49 11.97-6.38 5.064-9.883 12.778-12.07 20.438-3.848 13.785-1.234 29.649 8.286 40.594 1.579 1.733 3.294 3.358 4.864 5.137-10.945 3.167-22.207 6.09-33.696 5.654-7.505-0.327-15.246-2.269-21.218-7.006-4.175-3.358-8.385-6.843-11.317-11.38-2.777-4.32-6.153-8.576-6.797-13.831-2.269-15.791 7.106-32.807 22.089-38.67 7.777-3.24 16.054-5.509 24.512-5.835 0.091-2.124 9e-3 -4.256-0.054-6.344-9.937 0.145-19.657 3.104-28.714 7.042-15.337 6.825-24.766 23.605-24.766 40.122-3.149-2.024-6.888-3.848-8.395-7.496-2.178-5.01-4.719-10.11-4.783-15.682-0.163-16.399 11.898-32.281 27.961-36.029 5.69-0.953 11.87-0.408 16.971 2.469 1.379 0.69 2.804 1.307 4.256 1.897 6.062-6.462 12.796-12.252 19.022-18.559 6.398-6.616 12.397-13.613 18.895-20.129 3.313-3.031 6.171-6.679 10.182-8.848 13.304-7.079 25.61-15.891 37.49-25.12 7.405-5.854 14.321-12.342 20.646-19.339 5.608-7.324 10.3-15.5 12.832-24.412 2.668-9.176 3.703-19.068 9.039-27.236z" fill="#E6EFEE" stroke="#E6EFEE"/>
</svg>
